OptimisticAI_Journey.ufo
<glyph name="exclam" format="2">
  <advance width="526"/>
  <unicode hex="0021"/>
  <outline>
    <contour>
      <point x="356" y="420" type="line"/>
      <point x="170" y="420" type="line"/>
      <point x="145" y="1460" type="line"/>
      <point x="380" y="1460" type="line"/>
    </contour>
    <contour>
      <point x="402" y="57"/>
      <point x="322" y="-23"/>
      <point x="204" y="-23"/>
      <point x="123" y="57"/>
      <point x="123" y="176"/>
      <point x="204" y="256"/>
      <point x="322" y="256"/>
      <point x="402" y="176"/>
    </contour>
  </outline>
</glyph>
<glyph name="numbersign" format="2">
  <advance width="1170"/>
  <unicode hex="0023"/>
  <outline>
    <contour>
      <point x="-5" y="519" type="line"/>
      <point x="191" y="519" type="line"/>
      <point x="267" y="881" type="line"/>
      <point x="108" y="881" type="line"/>
      <point x="108" y="1056" type="line"/>
      <point x="304" y="1056" type="line"/>
      <point x="377" y="1400" type="line"/>
      <point x="573" y="1400" type="line"/>
      <point x="500" y="1056" type="line"/>
      <point x="821" y="1056" type="line"/>
      <point x="894" y="1400" type="line"/>
      <point x="1090" y="1400" type="line"/>
      <point x="1017" y="1056" type="line"/>
      <point x="1175" y="1056" type="line"/>
      <point x="1175" y="881" type="line"/>
      <point x="980" y="881" type="line"/>
      <point x="904" y="519" type="line"/>
      <point x="1063" y="519" type="line"/>
      <point x="1063" y="344" type="line"/>
      <point x="867" y="344" type="line"/>
      <point x="794" y="0" type="line"/>
      <point x="598" y="0" type="line"/>
      <point x="671" y="344" type="line"/>
      <point x="350" y="344" type="line"/>
      <point x="277" y="0" type="line"/>
      <point x="81" y="0" type="line"/>
      <point x="154" y="344" type="line"/>
      <point x="-5" y="344" type="line"/>
    </contour>
    <contour>
      <point x="784" y="881" type="line"/>
      <point x="463" y="881" type="line"/>
      <point x="387" y="519" type="line"/>
      <point x="708" y="519" type="line"/>
    </contour>
  </outline>
</glyph>
<glyph name="ampersand" format="2">
  <advance width="1369"/>
  <unicode hex="0026"/>
  <outline>
    <contour>
      <point x="50" y="412" type="qcurve" smooth="yes"/>
      <point x="50" y="548"/>
      <point x="196" y="749"/>
      <point x="331" y="795" type="qcurve"/>
      <point x="272" y="870"/>
      <point x="228" y="985"/>
      <point x="228" y="1051" type="qcurve" smooth="yes"/>
      <point x="228" y="1161"/>
      <point x="339" y="1328"/>
      <point x="535" y="1423"/>
      <point x="662" y="1423" type="qcurve" smooth="yes"/>
      <point x="854" y="1423"/>
      <point x="1083" y="1243"/>
      <point x="1106" y="1073" type="qcurve"/>
      <point x="883" y="1073" type="line"/>
      <point x="848" y="1233"/>
      <point x="670" y="1233" type="qcurve" smooth="yes"/>
      <point x="572" y="1233"/>
      <point x="453" y="1131"/>
      <point x="453" y="1045" type="qcurve" smooth="yes"/>
      <point x="453" y="1003"/>
      <point x="482" y="928"/>
      <point x="555" y="837"/>
      <point x="621" y="770" type="qcurve" smooth="yes"/>
      <point x="964" y="424" type="line"/>
      <point x="1022" y="563"/>
      <point x="1022" y="764" type="qcurve"/>
      <point x="1242" y="764" type="line"/>
      <point x="1242" y="619"/>
      <point x="1175" y="371"/>
      <point x="1113" y="274" type="qcurve"/>
      <point x="1384" y="0" type="line"/>
      <point x="1101" y="0" type="line"/>
      <point x="981" y="122" type="line"/>
      <point x="897" y="52"/>
      <point x="686" y="-23"/>
      <point x="563" y="-23" type="qcurve" smooth="yes"/>
      <point x="325" y="-23"/>
      <point x="50" y="207"/>
    </contour>
    <contour>
      <point x="274" y="432" type="qcurve" smooth="yes"/>
      <point x="274" y="308"/>
      <point x="437" y="163"/>
      <point x="575" y="163" type="qcurve" smooth="yes"/>
      <point x="739" y="163"/>
      <point x="848" y="257" type="qcurve"/>
      <point x="487" y="624" type="line" smooth="yes"/>
      <point x="457" y="655"/>
      <point x="432" y="681" type="qcurve"/>
      <point x="274" y="614"/>
    </contour>
  </outline>
</glyph>
<glyph name="plus" format="2">
  <advance width="1170"/>
  <unicode hex="002B"/>
  <outline>
    <contour>
      <point x="86" y="793" type="line"/>
      <point x="488" y="793" type="line"/>
      <point x="488" y="1186" type="line"/>
      <point x="682" y="1186" type="line"/>
      <point x="682" y="793" type="line"/>
      <point x="1084" y="793" type="line"/>
      <point x="1084" y="607" type="line"/>
      <point x="682" y="607" type="line"/>
      <point x="682" y="215" type="line"/>
      <point x="488" y="215" type="line"/>
      <point x="488" y="607" type="line"/>
      <point x="86" y="607" type="line"/>
    </contour>
  </outline>
</glyph>
<glyph name="comma" format="2">
  <advance width="449"/>
  <unicode hex="002C"/>
  <outline>
    <contour>
      <point x="127" y="237" type="line"/>
      <point x="364" y="237" type="line"/>
      <point x="217" y="-330" type="line"/>
      <point x="40" y="-330" type="line"/>
    </contour>
  </outline>
</glyph>
<glyph name="two" format="2">
  <advance width="1136"/>
  <unicode hex="0032"/>
  <outline>
    <contour>
      <point x="102" y="161" type="line"/>
      <point x="547" y="591" type="line" smooth="yes"/>
      <point x="650" y="689"/>
      <point x="763" y="827"/>
      <point x="808" y="943"/>
      <point x="808" y="1007" type="qcurve" smooth="yes"/>
      <point x="808" y="1116"/>
      <point x="680" y="1238"/>
      <point x="566" y="1238" type="qcurve" smooth="yes"/>
      <point x="340" y="1238"/>
      <point x="303" y="1008" type="qcurve"/>
      <point x="76" y="1008" type="line"/>
      <point x="101" y="1207"/>
      <point x="355" y="1423"/>
      <point x="566" y="1423" type="qcurve" smooth="yes"/>
      <point x="782" y="1423"/>
      <point x="1034" y="1200"/>
      <point x="1034" y="1009" type="qcurve" smooth="yes"/>
      <point x="1034" y="923"/>
      <point x="978" y="769"/>
      <point x="837" y="592"/>
      <point x="711" y="469" type="qcurve" smooth="yes"/>
      <point x="416" y="183" type="line"/>
      <point x="1066" y="183" type="line"/>
      <point x="1066" y="0" type="line"/>
      <point x="102" y="0" type="line"/>
    </contour>
  </outline>
</glyph>
<glyph name="colon" format="2">
  <advance width="449"/>
  <unicode hex="003A"/>
  <outline>
    <contour>
      <point x="85" y="176"/>
      <point x="166" y="256"/>
      <point x="284" y="256"/>
      <point x="364" y="176"/>
      <point x="364" y="57"/>
      <point x="284" y="-23"/>
      <point x="166" y="-23"/>
      <point x="85" y="57"/>
    </contour>
    <contour>
      <point x="85" y="957"/>
      <point x="166" y="1037"/>
      <point x="284" y="1037"/>
      <point x="364" y="957"/>
      <point x="364" y="838"/>
      <point x="284" y="758"/>
      <point x="166" y="758"/>
      <point x="85" y="838"/>
    </contour>
  </outline>
</glyph>
<glyph name="A" format="2">
  <advance width="1320"/>
  <unicode hex="0041"/>
  <outline>
    <contour>
      <point x="133" y="0" type="move"/>
      <point x="569" y="1279" type="line" smooth="yes"/>
      <point x="584" y="1322"/>
      <point x="613" y="1342"/>
      <point x="658" y="1342" type="curve" smooth="yes"/>
      <point x="661" y="1342" type="line" smooth="yes"/>
      <point x="706" y="1342"/>
      <point x="736" y="1321"/>
      <point x="750" y="1278" type="curve" smooth="yes"/>
      <point x="909" y="792" type="line"/>
      <point x="976" y="583"/>
      <point x="917" y="478"/>
      <point x="696" y="478" type="curve"/>
      <point x="557" y="478" type="line"/>
      <point x="757" y="485" type="line"/>
      <point x="932" y="485"/>
      <point x="1041" y="406"/>
      <point x="1098" y="241" type="curve"/>
      <point x="1180" y="2" type="line"/>
    </contour>
  </outline>
</glyph>
<glyph name="C" format="2">
  <advance width="1396"/>
  <unicode hex="0043"/>
  <outline>
    <contour>
      <point x="734.96875" y="-23" type="curve" smooth="yes"/>
      <point x="629.09375" y="-23"/>
      <point x="532.53125" y="-5.3125"/>
      <point x="447.97656" y="29.5625" type="curve" smooth="yes"/>
      <point x="362.41406" y="64.85156"/>
      <point x="289.09375" y="117.59375"/>
      <point x="230.05469" y="186.3125" type="curve" smooth="yes"/>
      <point x="173.1875" y="252.50781"/>
      <point x="129.96875" y="333.1875"/>
      <point x="101.60156" y="426.11719" type="curve" smooth="yes"/>
      <point x="74.65625" y="514.36719"/>
      <point x="61" y="614.25"/>
      <point x="61" y="722.97656" type="curve" smooth="yes"/>
      <point x="61" y="953.89844"/>
      <point x="119.28906" y="1136.60156"/>
      <point x="234.25781" y="1266.00781" type="curve" smooth="yes"/>
      <point x="293.57031" y="1332.78125"/>
      <point x="367.15625" y="1383.78125"/>
      <point x="452.96094" y="1417.60156" type="curve" smooth="yes"/>
      <point x="536.04688" y="1450.34375"/>
      <point x="630.92969" y="1466.94531"/>
      <point x="734.96875" y="1466.94531" type="curve" smooth="yes"/>
      <point x="874.60938" y="1466.94531"/>
      <point x="996.60156" y="1437.26562"/>
      <point x="1097.57812" y="1378.73438" type="curve" smooth="yes"/>
      <point x="1200.875" y="1318.84375"/>
      <point x="1280.05469" y="1230.46094"/>
      <point x="1332.90625" y="1116.02344" type="curve" smooth="yes"/>
      <point x="1358.38281" y="1060.875"/>
      <point x="1334.32031" y="995.51562"/>
      <point x="1279.17188" y="970.04688" type="curve" smooth="yes"/>
      <point x="1224.02344" y="944.57031"/>
      <point x="1158.66406" y="968.63281"/>
      <point x="1133.1875" y="1023.78125" type="curve" smooth="yes"/>
      <point x="1099.69531" y="1096.28906"/>
      <point x="1050.59375" y="1151.67969"/>
      <point x="987.24219" y="1188.40625" type="curve" smooth="yes"/>
      <point x="920.22656" y="1227.25781"/>
      <point x="835.35156" y="1246.95312"/>
      <point x="734.96875" y="1246.95312" type="curve" smooth="yes"/>
      <point x="586.75" y="1246.95312"/>
      <point x="473.61719" y="1204.21094"/>
      <point x="398.71875" y="1119.90625" type="curve" smooth="yes"/>
      <point x="320.60156" y="1031.96094"/>
      <point x="280.98438" y="898.42188"/>
      <point x="280.98438" y="722.97656" type="curve" smooth="yes"/>
      <point x="280.98438" y="636.03125"/>
      <point x="291.42188" y="557.77344"/>
      <point x="312.00781" y="490.35156" type="curve" smooth="yes"/>
      <point x="331.4375" y="426.69531"/>
      <point x="360.00781" y="372.64062"/>
      <point x="396.92188" y="329.67188" type="curve" smooth="yes"/>
      <point x="472.55469" y="241.63281"/>
      <point x="586.28906" y="196.99219"/>
      <point x="734.96875" y="196.99219" type="curve" smooth="yes"/>
      <point x="840.76562" y="196.99219"/>
      <point x="929.4375" y="219.70312"/>
      <point x="998.50781" y="264.49219" type="curve" smooth="yes"/>
      <point x="1063.38281" y="306.55469"/>
      <point x="1112.48438" y="369.44531"/>
      <point x="1144.45312" y="451.40625" type="curve" smooth="yes"/>
      <point x="1166.52344" y="508"/>
      <point x="1230.29688" y="535.99219"/>
      <point x="1286.89844" y="513.92188" type="curve" smooth="yes"/>
      <point x="1343.49219" y="491.84375"/>
      <point x="1371.48438" y="428.07031"/>
      <point x="1349.40625" y="371.46875" type="curve" smooth="yes"/>
      <point x="1250.20312" y="117.09375"/>
      <point x="1031.99219" y="-23"/>
    </contour>
  </outline>
</glyph>
<glyph name="D" format="2">
  <advance width="1380"/>
  <unicode hex="0044"/>
  <outline>
    <contour>
      <point x="333.99219" y="229.99219" type="line" smooth="yes"/>
      <point x="333.99219" y="224.46875"/>
      <point x="338.46875" y="219.99219"/>
      <point x="343.99219" y="219.99219" type="curve" smooth="yes"/>
      <point x="614.41406" y="219.99219" type="line" smooth="yes"/>
      <point x="764.10156" y="219.99219"/>
      <point x="878.39062" y="262.67969"/>
      <point x="954.125" y="346.85937" type="curve" smooth="yes"/>
      <point x="990.52344" y="387.32812"/>
      <point x="1018.67969" y="438.17969"/>
      <point x="1037.80469" y="498.01562" type="curve" smooth="yes"/>
      <point x="1058.10937" y="561.50781"/>
      <point x="1068.39844" y="635.29687"/>
      <point x="1068.39844" y="717.34375" type="curve" smooth="yes"/>
      <point x="1068.39844" y="882.67969"/>
      <point x="1029.35937" y="1008.48437"/>
      <point x="952.35937" y="1091.25" type="curve" smooth="yes"/>
      <point x="877.34375" y="1171.89844"/>
      <point x="763.64062" y="1212.78906"/>
      <point x="614.41406" y="1212.78906" type="curve" smooth="yes"/>
      <point x="343.99219" y="1212.78906" type="line" smooth="yes"/>
      <point x="338.46875" y="1212.78906"/>
      <point x="333.99219" y="1208.30469"/>
      <point x="333.99219" y="1202.78906" type="curve" smooth="yes"/>
    </contour>
    <contour>
      <point x="614.41406" y="0" type="curve" smooth="yes"/>
      <point x="223.99219" y="0" type="line" smooth="yes"/>
      <point x="163.25" y="0"/>
      <point x="114" y="49.25"/>
      <point x="114" y="110" type="curve" smooth="yes"/>
      <point x="114" y="1322.78125" type="line" smooth="yes"/>
      <point x="114" y="1383.53125"/>
      <point x="163.25" y="1432.78125"/>
      <point x="223.99219" y="1432.78125" type="curve" smooth="yes"/>
      <point x="614.41406" y="1432.78125" type="line" smooth="yes"/>
      <point x="717.875" y="1432.78125"/>
      <point x="812.21875" y="1417.00781"/>
      <point x="894.83594" y="1385.91406" type="curve" smooth="yes"/>
      <point x="980.46875" y="1353.6875"/>
      <point x="1054.01562" y="1304.96094"/>
      <point x="1113.4375" y="1241.08594" type="curve" smooth="yes"/>
      <point x="1172.10937" y="1178.01562"/>
      <point x="1216.72656" y="1100.39062"/>
      <point x="1246.03906" y="1010.38281" type="curve" smooth="yes"/>
      <point x="1274.14062" y="924.11719"/>
      <point x="1288.39062" y="825.52344"/>
      <point x="1288.39062" y="717.34375" type="curve" smooth="yes"/>
      <point x="1288.39062" y="612.53125"/>
      <point x="1274.57812" y="516.20312"/>
      <point x="1247.35156" y="431.03125" type="curve" smooth="yes"/>
      <point x="1218.67969" y="341.32812"/>
      <point x="1175.04687" y="263.50781"/>
      <point x="1117.67187" y="199.72656" type="curve" smooth="yes"/>
      <point x="1058.51562" y="133.96094"/>
      <point x="985.20312" y="83.55469"/>
      <point x="899.78125" y="49.90625" type="curve" smooth="yes"/>
      <point x="815.69531" y="16.79687"/>
      <point x="719.6875" y="0"/>
    </contour>
  </outline>
</glyph>
<glyph name="E" format="2">
  <advance width="1138"/>
  <unicode hex="0045"/>
  <outline>
    <contour>
      <point x="945.94531" y="0" type="curve" smooth="yes"/>
      <point x="224" y="0" type="line" smooth="yes"/>
      <point x="163.25" y="0"/>
      <point x="114" y="49.25"/>
      <point x="114" y="110" type="curve" smooth="yes"/>
      <point x="114" y="556.51562" type="line" smooth="yes"/>
      <point x="114" y="622.46875"/>
      <point x="142.09375" y="701.66406"/>
      <point x="196.27344" y="731.82031" type="curve"/>
      <point x="136.39062" y="767.24219"/>
      <point x="114" y="843.01562"/>
      <point x="114" y="907.39844" type="curve" smooth="yes"/>
      <point x="114" y="1322.78125" type="line" smooth="yes"/>
      <point x="114" y="1383.53125"/>
      <point x="163.25" y="1432.78125"/>
      <point x="224" y="1432.78125" type="curve" smooth="yes"/>
      <point x="921.49219" y="1432.78125" type="line" smooth="yes"/>
      <point x="981.94531" y="1432.78125"/>
      <point x="1032.33594" y="1384.6875"/>
      <point x="1033.125" y="1324.24219" type="curve" smooth="yes"/>
      <point x="1033.92187" y="1262.82031"/>
      <point x="984.375" y="1212.78906"/>
      <point x="923.14062" y="1212.78906" type="curve" smooth="yes"/>
      <point x="333.99219" y="1212.78906" type="line"/>
      <point x="333.99219" y="915.89844" type="line" smooth="yes"/>
      <point x="333.99219" y="906.25"/>
      <point x="335.33594" y="896.60937"/>
      <point x="338.49219" y="887.5" type="curve" smooth="yes"/>
      <point x="347.78125" y="860.67969"/>
      <point x="369.05469" y="842.95312"/>
      <point x="400.98437" y="843.49219" type="curve" smooth="yes"/>
      <point x="805.80469" y="843.49219" type="line" smooth="yes"/>
      <point x="865.89844" y="843.49219"/>
      <point x="916.11719" y="795.96875"/>
      <point x="917.40625" y="735.89062" type="curve" smooth="yes"/>
      <point x="918.71875" y="674.71875"/>
      <point x="869.96875" y="624.375"/>
      <point x="808.99219" y="623.51562" type="curve" smooth="yes"/>
      <point x="806.85156" y="623.48437"/>
      <point x="592.125" y="620.46875"/>
      <point x="401.04687" y="620.41406" type="curve"/>
      <point x="367.53125" y="620.83594"/>
      <point x="346.25" y="601.85937"/>
      <point x="337.53125" y="573.24219" type="curve" smooth="yes"/>
      <point x="335.03906" y="565.07031"/>
      <point x="333.99219" y="556.53125"/>
      <point x="333.99219" y="547.99219" type="curve" smooth="yes"/>
      <point x="333.99219" y="219.99219" type="line"/>
      <point x="944.30469" y="219.99219" type="line" smooth="yes"/>
      <point x="1004.75781" y="219.99219"/>
      <point x="1055.14844" y="171.90625"/>
      <point x="1055.9375" y="111.46094" type="curve" smooth="yes"/>
      <point x="1056.73437" y="50.03906"/>
      <point x="1007.1875" y="0"/>
    </contour>
  </outline>
</glyph>
<glyph name="F" format="2">
  <advance width="1098"/>
  <unicode hex="0046"/>
  <outline>
    <contour>
      <point x="921.49219" y="1432.77344" type="curve" smooth="yes"/>
      <point x="224" y="1432.77344" type="line" smooth="yes"/>
      <point x="163.25" y="1432.77344"/>
      <point x="114" y="1383.53125"/>
      <point x="114" y="1322.78125" type="curve" smooth="yes"/>
      <point x="114" y="907.39844" type="line" smooth="yes"/>
      <point x="114" y="843.01562"/>
      <point x="136.39063" y="767.24219"/>
      <point x="196.26563" y="731.82031" type="curve"/>
      <point x="142.09375" y="701.66406"/>
      <point x="114" y="622.46875"/>
      <point x="114" y="556.51562" type="curve" smooth="yes"/>
      <point x="114" y="110" type="line" smooth="yes"/>
      <point x="114" y="49.25"/>
      <point x="163.25" y="0"/>
      <point x="224" y="0" type="curve" smooth="yes"/>
      <point x="284.75" y="0"/>
      <point x="333.99219" y="49.25"/>
      <point x="333.99219" y="110" type="curve" smooth="yes"/>
      <point x="333.99219" y="547.99219" type="line" smooth="yes"/>
      <point x="333.99219" y="556.53125"/>
      <point x="335.03906" y="565.07031"/>
      <point x="337.53125" y="573.24219" type="curve" smooth="yes"/>
      <point x="346.25" y="601.85937"/>
      <point x="367.53125" y="620.83594"/>
      <point x="401.03906" y="620.41406" type="curve" smooth="yes"/>
      <point x="592.125" y="620.47656"/>
      <point x="806.84375" y="623.48437"/>
      <point x="808.99219" y="623.51562" type="curve" smooth="yes"/>
      <point x="869.96875" y="624.375"/>
      <point x="918.71875" y="674.71875"/>
      <point x="917.40625" y="735.89062" type="curve" smooth="yes"/>
      <point x="916.11719" y="795.96875"/>
      <point x="865.89844" y="843.49219"/>
      <point x="805.80469" y="843.49219" type="curve" smooth="yes"/>
      <point x="400.98438" y="843.49219" type="line"/>
      <point x="369.05469" y="842.95312"/>
      <point x="347.78125" y="860.67969"/>
      <point x="338.49219" y="887.49219" type="curve" smooth="yes"/>
      <point x="335.33594" y="896.60937"/>
      <point x="333.99219" y="906.25"/>
      <point x="333.99219" y="915.89062" type="curve" smooth="yes"/>
      <point x="333.99219" y="1202.78906" type="line" smooth="yes"/>
      <point x="333.99219" y="1208.30469"/>
      <point x="338.46875" y="1212.78125"/>
      <point x="343.99219" y="1212.78125" type="curve" smooth="yes"/>
      <point x="923.13281" y="1212.78125" type="line" smooth="yes"/>
      <point x="984.36719" y="1212.78125"/>
      <point x="1033.92188" y="1262.82812"/>
      <point x="1033.11719" y="1324.24219" type="curve" smooth="yes"/>
      <point x="1032.33594" y="1384.6875"/>
      <point x="981.94531" y="1432.77344"/>
    </contour>
  </outline>
</glyph>
<glyph name="G" format="2">
  <advance width="1399"/>
  <unicode hex="0047"/>
  <outline>
    <contour>
      <point x="1132.49219" y="580.04688" type="line"/>
      <point x="1132.51562" y="580.04688" type="line"/>
    </contour>
    <contour>
      <point x="734.97656" y="-23" type="curve" smooth="yes"/>
      <point x="629.10156" y="-23"/>
      <point x="532.53906" y="-5.3125"/>
      <point x="447.98437" y="29.5625" type="curve" smooth="yes"/>
      <point x="362.42187" y="64.85156"/>
      <point x="289.10156" y="117.59375"/>
      <point x="230.0625" y="186.3125" type="curve" smooth="yes"/>
      <point x="173.19531" y="252.50781"/>
      <point x="129.97656" y="333.1875"/>
      <point x="101.60937" y="426.11719" type="curve" smooth="yes"/>
      <point x="74.66406" y="514.36719"/>
      <point x="61" y="614.25"/>
      <point x="61" y="722.97656" type="curve" smooth="yes"/>
      <point x="61" y="953.89844"/>
      <point x="119.29687" y="1136.60156"/>
      <point x="234.25781" y="1266.00781" type="curve" smooth="yes"/>
      <point x="293.57812" y="1332.78125"/>
      <point x="367.16406" y="1383.78125"/>
      <point x="452.96875" y="1417.60156" type="curve" smooth="yes"/>
      <point x="536.05469" y="1450.34375"/>
      <point x="630.9375" y="1466.94531"/>
      <point x="734.97656" y="1466.94531" type="curve" smooth="yes"/>
      <point x="875.70312" y="1466.94531"/>
      <point x="990.0625" y="1437.15625"/>
      <point x="1084.59375" y="1375.86719" type="curve" smooth="yes"/>
      <point x="1173.90625" y="1317.96094"/>
      <point x="1243.57031" y="1232.96875"/>
      <point x="1297.58594" y="1116.02344" type="curve" smooth="yes"/>
      <point x="1323.0625" y="1060.875"/>
      <point x="1299" y="995.51562"/>
      <point x="1243.85156" y="970.04688" type="curve" smooth="yes"/>
      <point x="1228.92187" y="963.14844"/>
      <point x="1213.23437" y="959.88281"/>
      <point x="1197.79687" y="959.88281" type="curve"/>
      <point x="1156.22656" y="959.875"/>
      <point x="1116.44531" y="983.5625"/>
      <point x="1097.875" y="1023.78125" type="curve" smooth="yes"/>
      <point x="1061.30469" y="1102.94531"/>
      <point x="1019.05469" y="1156.17188"/>
      <point x="964.91406" y="1191.27344" type="curve" smooth="yes"/>
      <point x="907.125" y="1228.74219"/>
      <point x="831.91406" y="1246.95312"/>
      <point x="734.97656" y="1246.95312" type="curve" smooth="yes"/>
      <point x="586.75" y="1246.95312"/>
      <point x="473.625" y="1204.21094"/>
      <point x="398.72656" y="1119.90625" type="curve" smooth="yes"/>
      <point x="320.60937" y="1031.96875"/>
      <point x="280.99219" y="898.42188"/>
      <point x="280.99219" y="722.97656" type="curve" smooth="yes"/>
      <point x="280.99219" y="636.03125"/>
      <point x="291.42969" y="557.76562"/>
      <point x="312.01562" y="490.35156" type="curve" smooth="yes"/>
      <point x="331.44531" y="426.69531"/>
      <point x="360.01562" y="372.64062"/>
      <point x="396.92969" y="329.67188" type="curve" smooth="yes"/>
      <point x="472.5625" y="241.63281"/>
      <point x="586.29687" y="196.99219"/>
      <point x="734.97656" y="196.99219" type="curve" smooth="yes"/>
      <point x="741.24219" y="196.99219"/>
      <point x="748.0625" y="197.21094"/>
      <point x="755.28906" y="197.4375" type="curve" smooth="yes"/>
      <point x="763.69531" y="197.70312"/>
      <point x="772.38281" y="197.97656"/>
      <point x="781.70312" y="197.97656" type="curve" smooth="yes"/>
      <point x="910.05469" y="197.97656"/>
      <point x="996.69531" y="229.33594"/>
      <point x="1046.57812" y="293.83594" type="curve" smooth="yes"/>
      <point x="1092.17187" y="352.79688"/>
      <point x="1114.33594" y="444.91406"/>
      <point x="1114.33594" y="575.45312" type="curve" smooth="yes"/>
      <point x="1114.33594" y="575.5" type="line" smooth="yes"/>
      <point x="1114.33594" y="578.01562"/>
      <point x="1112.26562" y="580.04688"/>
      <point x="1109.75" y="580.04688" type="curve" smooth="yes"/>
      <point x="708.96875" y="580.04688" type="line" smooth="yes"/>
      <point x="647.73437" y="580.04688"/>
      <point x="598.1875" y="630.08594"/>
      <point x="598.98437" y="691.5" type="curve" smooth="yes"/>
      <point x="599.76562" y="751.95312"/>
      <point x="650.15625" y="800.03906"/>
      <point x="710.60937" y="800.03906" type="curve" smooth="yes"/>
      <point x="1132.35156" y="800.03906" type="line" smooth="yes"/>
      <point x="1251.27344" y="800.03906"/>
      <point x="1334.32812" y="707.6875"/>
      <point x="1334.32812" y="575.45312" type="curve" smooth="yes"/>
      <point x="1334.32812" y="394.35156"/>
      <point x="1297.125" y="258.21094"/>
      <point x="1220.60156" y="159.25781" type="curve" smooth="yes"/>
      <point x="1127.58594" y="38.97656"/>
      <point x="979.91406" y="-22.01562"/>
      <point x="781.70312" y="-22.01562" type="curve" smooth="yes"/>
      <point x="775.85937" y="-22.01562"/>
      <point x="769.24219" y="-22.21875"/>
      <point x="762.24219" y="-22.44531" type="curve" smooth="yes"/>
      <point x="754.02344" y="-22.70312"/>
      <point x="744.71875" y="-23"/>
    </contour>
  </outline>
</glyph>
<glyph name="H" format="2">
  <advance width="1382"/>
  <unicode hex="0048"/>
  <outline>
    <contour>
      <point x="1156.41406" y="0" type="curve" smooth="yes"/>
      <point x="1095.67188" y="0"/>
      <point x="1046.42188" y="49.25"/>
      <point x="1046.42188" y="110" type="curve" smooth="yes"/>
      <point x="1046.42188" y="501.94531" type="line" smooth="yes"/>
      <point x="1046.42188" y="559.53906"/>
      <point x="999.5625" y="606.39062"/>
      <point x="941.97656" y="606.39062" type="curve" smooth="yes"/>
      <point x="438.42969" y="606.39062" type="line" smooth="yes"/>
      <point x="401.90625" y="606.39062"/>
      <point x="365.78125" y="610.875"/>
      <point x="333.99219" y="643.65625" type="curve"/>
      <point x="333.99219" y="110" type="line" smooth="yes"/>
      <point x="333.99219" y="49.25"/>
      <point x="284.74219" y="0"/>
      <point x="223.99219" y="0" type="curve" smooth="yes"/>
      <point x="163.24219" y="0"/>
      <point x="114" y="49.25"/>
      <point x="114" y="110" type="curve" smooth="yes"/>
      <point x="114" y="1322.78125" type="line" smooth="yes"/>
      <point x="114" y="1383.53125"/>
      <point x="163.24219" y="1432.78125"/>
      <point x="223.99219" y="1432.78125" type="curve" smooth="yes"/>
      <point x="284.74219" y="1432.78125"/>
      <point x="333.99219" y="1383.53125"/>
      <point x="333.99219" y="1322.78125" type="curve" smooth="yes"/>
      <point x="333.99219" y="930.82812" type="line" smooth="yes"/>
      <point x="333.99219" y="873.24219"/>
      <point x="380.84375" y="826.38281"/>
      <point x="438.42969" y="826.38281" type="curve" smooth="yes"/>
      <point x="941.97656" y="826.38281" type="line" smooth="yes"/>
      <point x="978.5" y="826.38281"/>
      <point x="1020.19531" y="822.35937"/>
      <point x="1046.42188" y="789.125" type="curve"/>
      <point x="1046.42188" y="1322.78125" type="line" smooth="yes"/>
      <point x="1046.42188" y="1383.53125"/>
      <point x="1095.67188" y="1432.78125"/>
      <point x="1156.41406" y="1432.78125" type="curve" smooth="yes"/>
      <point x="1217.16406" y="1432.78125"/>
      <point x="1266.41406" y="1383.53125"/>
      <point x="1266.41406" y="1322.78125" type="curve" smooth="yes"/>
      <point x="1266.41406" y="110" type="line" smooth="yes"/>
      <point x="1266.41406" y="49.25"/>
      <point x="1217.16406" y="0"/>
    </contour>
  </outline>
</glyph>
<glyph name="I" format="2">
  <advance width="452"/>
  <unicode hex="0049"/>
  <outline>
    <contour>
      <point x="224" y="0" type="curve" smooth="yes"/>
      <point x="163.25" y="0"/>
      <point x="114" y="49.25"/>
      <point x="114" y="110" type="curve" smooth="yes"/>
      <point x="114" y="1322.78125" type="line" smooth="yes"/>
      <point x="114" y="1383.53125"/>
      <point x="163.25" y="1432.78125"/>
      <point x="224" y="1432.78125" type="curve" smooth="yes"/>
      <point x="284.75" y="1432.78125"/>
      <point x="333.99219" y="1383.53125"/>
      <point x="333.99219" y="1322.78125" type="curve" smooth="yes"/>
      <point x="333.99219" y="110" type="line" smooth="yes"/>
      <point x="333.99219" y="49.25"/>
      <point x="284.75" y="0"/>
    </contour>
  </outline>
</glyph>
<glyph name="J" format="2">
  <advance width="1082"/>
  <unicode hex="004A"/>
  <outline>
    <contour>
      <point x="504.60335" y="-23" type="curve" smooth="yes"/>
      <point x="380.09554" y="-23"/>
      <point x="277.87679" y="9.23437"/>
      <point x="200.79867" y="72.8125" type="curve" smooth="yes"/>
      <point x="123.22054" y="136.80469"/>
      <point x="70.80648" y="232.96875"/>
      <point x="45.01742" y="358.625" type="curve" smooth="yes"/>
      <point x="32.79867" y="418.13281"/>
      <point x="71.1346" y="476.28125"/>
      <point x="130.64242" y="488.5" type="curve" smooth="yes"/>
      <point x="190.15023" y="500.70312"/>
      <point x="248.29867" y="462.375"/>
      <point x="260.5096" y="402.86719" type="curve" smooth="yes"/>
      <point x="276.16585" y="326.61719"/>
      <point x="302.42367" y="274.17187"/>
      <point x="340.79085" y="242.52344" type="curve" smooth="yes"/>
      <point x="377.93148" y="211.88281"/>
      <point x="431.51742" y="196.99219"/>
      <point x="504.60335" y="196.99219" type="curve" smooth="yes"/>
      <point x="562.02523" y="196.99219"/>
      <point x="644.09554" y="204.02344"/>
      <point x="693.68929" y="264.85156" type="curve" smooth="yes"/>
      <point x="736.18148" y="316.97656"/>
      <point x="757.72835" y="407.72656"/>
      <point x="757.72835" y="534.58594" type="curve" smooth="yes"/>
      <point x="757.72835" y="1328.35937" type="line" smooth="yes"/>
      <point x="757.72835" y="1389.10937"/>
      <point x="806.97835" y="1438.35937"/>
      <point x="867.72835" y="1438.35937" type="curve" smooth="yes"/>
      <point x="928.47054" y="1438.35937"/>
      <point x="977.72054" y="1389.10937"/>
      <point x="977.72054" y="1328.35937" type="curve" smooth="yes"/>
      <point x="977.72054" y="534.58594" type="line" smooth="yes"/>
      <point x="977.72054" y="353.25"/>
      <point x="940.58773" y="219.54687"/>
      <point x="864.1971" y="125.84375" type="curve" smooth="yes"/>
      <point x="783.67367" y="27.07812"/>
      <point x="662.68929" y="-23"/>
    </contour>
  </outline>
</glyph>
<glyph name="K" format="2">
  <advance width="1219"/>
  <unicode hex="004B"/>
  <outline>
    <contour>
      <point x="223.99219" y="0" type="curve" smooth="yes"/>
      <point x="212.59375" y="0"/>
      <point x="201.05469" y="1.77344"/>
      <point x="189.74219" y="5.47656" type="curve" smooth="yes"/>
      <point x="144.14844" y="20.39844"/>
      <point x="114" y="63.86719"/>
      <point x="114" y="111.84375" type="curve" smooth="yes"/>
      <point x="114" y="1321.14844" type="line" smooth="yes"/>
      <point x="114" y="1381.60156"/>
      <point x="162.08594" y="1431.98438"/>
      <point x="222.53125" y="1432.77344" type="curve" smooth="yes"/>
      <point x="283.95313" y="1433.57031"/>
      <point x="333.99219" y="1384.02344"/>
      <point x="333.99219" y="1322.78906" type="curve" smooth="yes"/>
      <point x="333.99219" y="521.61719" type="line" smooth="yes"/>
      <point x="333.99219" y="511.60938"/>
      <point x="347.04688" y="507.80469"/>
      <point x="352.42188" y="516.24219" type="curve" smooth="yes"/>
      <point x="904.02344" y="1381.89844" type="line" smooth="yes"/>
      <point x="936.34375" y="1432.61719"/>
      <point x="1003.40625" y="1447.97656"/>
      <point x="1054.57813" y="1416.38281" type="curve" smooth="yes"/>
      <point x="1105.75" y="1384.78906"/>
      <point x="1122.0625" y="1317.96094"/>
      <point x="1091.20313" y="1266.34375" type="curve" smooth="yes"/>
      <point x="847.625" y="858.9375" type="line" smooth="yes"/>
      <point x="846.82031" y="857.59375"/>
      <point x="845.99219" y="856.27344"/>
      <point x="845.14063" y="854.97656" type="curve" smooth="yes"/>
      <point x="817.89063" y="813.50781"/>
      <point x="804.13281" y="765.35938"/>
      <point x="805.35156" y="715.75" type="curve" smooth="yes"/>
      <point x="806.57813" y="666.14063"/>
      <point x="822.69531" y="618.73438"/>
      <point x="851.96094" y="578.65625" type="curve" smooth="yes"/>
      <point x="1146.8125" y="174.86719" type="line" smooth="yes"/>
      <point x="1182.63281" y="125.8125"/>
      <point x="1171.90625" y="56.99219"/>
      <point x="1122.84375" y="21.17188" type="curve" smooth="yes"/>
      <point x="1073.78125" y="-14.65625"/>
      <point x="1004.96875" y="-3.92187"/>
      <point x="969.14063" y="45.13281" type="curve" smooth="yes"/>
      <point x="674.29688" y="448.92188" type="line" smooth="yes"/>
      <point x="654.65625" y="475.82031"/>
      <point x="640.99219" y="505.79688"/>
      <point x="631.25" y="549.69531" type="curve"/>
      <point x="316.75781" y="50.89063" type="line" smooth="yes"/>
      <point x="296.19531" y="18.61719"/>
      <point x="260.875" y="0"/>
    </contour>
  </outline>
</glyph>
<glyph name="L" format="2">
  <advance width="1096"/>
  <unicode hex="004C"/>
  <outline>
    <contour>
      <point x="333.99219" y="110" type="line"/>
      <point x="334.01562" y="110" type="line"/>
    </contour>
    <contour>
      <point x="951.24219" y="0" type="curve" smooth="yes"/>
      <point x="224" y="0" type="line" smooth="yes"/>
      <point x="163.25" y="0"/>
      <point x="114" y="49.25"/>
      <point x="114" y="110" type="curve" smooth="yes"/>
      <point x="114" y="1322.78125" type="line" smooth="yes"/>
      <point x="114" y="1383.53125"/>
      <point x="163.25" y="1432.78125"/>
      <point x="223.99219" y="1432.78125" type="curve" smooth="yes"/>
      <point x="284.74219" y="1432.78125"/>
      <point x="333.99219" y="1383.53125"/>
      <point x="333.99219" y="1322.78125" type="curve" smooth="yes"/>
      <point x="333.99219" y="229.99219" type="line" smooth="yes"/>
      <point x="333.99219" y="224.46875"/>
      <point x="338.46875" y="219.99219"/>
      <point x="343.99219" y="219.99219" type="curve" smooth="yes"/>
      <point x="952.88281" y="219.99219" type="line" smooth="yes"/>
      <point x="1014.11719" y="219.99219"/>
      <point x="1063.67187" y="169.96094"/>
      <point x="1062.875" y="108.53906" type="curve" smooth="yes"/>
      <point x="1062.08594" y="48.09375"/>
      <point x="1011.69531" y="0"/>
    </contour>
  </outline>
</glyph>
<glyph name="M" format="2">
  <advance width="1655"/>
  <unicode hex="004D"/>
  <outline>
    <contour>
      <point x="1536.49219" y="1309.67442" type="curve"/>
      <point x="1535.61719" y="1304.31505"/>
      <point x="1534.33594" y="1298.99474"/>
      <point x="1532.64063" y="1293.75255" type="curve"/>
      <point x="1534.57813" y="1299.73692"/>
      <point x="1535.76563" y="1305.1588"/>
    </contour>
    <contour>
      <point x="1521.1875" y="1269.2213" type="curve"/>
      <point x="1521.1875" y="1269.21349"/>
      <point x="1521.17969" y="1269.20567"/>
      <point x="1521.17969" y="1269.19786" type="curve"/>
      <point x="1521.17969" y="1269.20567"/>
      <point x="1521.1875" y="1269.21349"/>
    </contour>
    <contour>
      <point x="1521.11719" y="1269.0963" type="curve"/>
      <point x="1521.09375" y="1269.06505"/>
      <point x="1521.07813" y="1269.04161"/>
      <point x="1521.05469" y="1269.01036" type="curve"/>
      <point x="1521.07813" y="1269.0338"/>
      <point x="1521.09375" y="1269.06505"/>
    </contour>
    <contour>
      <point x="1521.03906" y="1268.9713" type="curve"/>
      <point x="1520.25781" y="1267.73692"/>
      <point x="1519.44531" y="1266.51036"/>
      <point x="1518.61719" y="1265.29161" type="curve"/>
      <point x="1518.5625" y="1265.2213" type="line"/>
      <point x="1519.42969" y="1266.4713"/>
      <point x="1520.25" y="1267.7213"/>
    </contour>
    <contour>
      <point x="1426.03906" y="-0.00526" type="curve" smooth="yes"/>
      <point x="1364.625" y="-0.80214"/>
      <point x="1314.58594" y="48.74474"/>
      <point x="1314.58594" y="109.97911" type="curve" smooth="yes"/>
      <point x="1314.58594" y="113.01817"/>
      <point x="1314.59375" y="416.72911"/>
      <point x="1315.00781" y="717.12755" type="curve" smooth="yes"/>
      <point x="1315.11719" y="798.07286"/>
      <point x="1315.25" y="871.51817"/>
      <point x="1315.39844" y="937.0963" type="curve" smooth="yes"/>
      <point x="1315.42188" y="946.93224"/>
      <point x="1302.71875" y="950.86974"/>
      <point x="1297.15625" y="942.76817" type="curve" smooth="yes"/>
      <point x="988.58594" y="493.36974" type="line"/>
      <point x="955.70313" y="429.26817"/>
      <point x="938.32031" y="342.14317"/>
      <point x="936.88281" y="234.29161" type="curve" smooth="yes"/>
      <point x="936.07813" y="174.11974"/>
      <point x="887.07031" y="125.76036"/>
      <point x="826.89844" y="125.76036" type="curve" smooth="yes"/>
      <point x="826.07031" y="125.76036" type="line" smooth="yes"/>
      <point x="765.32031" y="125.76036"/>
      <point x="716.07031" y="175.00255"/>
      <point x="716.07031" y="235.75255" type="curve" smooth="yes"/>
      <point x="716.07031" y="240.52599"/>
      <point x="716.375" y="245.22911"/>
      <point x="716.96875" y="249.83849" type="curve"/>
      <point x="717.85938" y="327.39317"/>
      <point x="716.42969" y="420.3463"/>
      <point x="665.89844" y="489.14317" type="curve" smooth="yes"/>
      <point x="665.26563" y="490.01036"/>
      <point x="664.64844" y="490.87755"/>
      <point x="664.03906" y="491.76036" type="curve" smooth="yes"/>
      <point x="352.21875" y="943.42442" type="line" smooth="yes"/>
      <point x="346.64844" y="951.50255"/>
      <point x="333.99219" y="947.55724"/>
      <point x="333.99219" y="937.74474" type="curve" smooth="yes"/>
      <point x="333.99219" y="111.61974" type="line" smooth="yes"/>
      <point x="333.99219" y="51.17442"/>
      <point x="285.90625" y="0.7838"/>
      <point x="225.46094" y="-0.00526" type="curve" smooth="yes"/>
      <point x="164.03906" y="-0.80214"/>
      <point x="114" y="48.74474"/>
      <point x="114" y="109.97911" type="curve" smooth="yes"/>
      <point x="114" y="1322.76817" type="line" smooth="yes"/>
      <point x="114" y="1370.9088"/>
      <point x="145.30469" y="1413.45567"/>
      <point x="191.26563" y="1427.7838" type="curve" smooth="yes"/>
      <point x="237.22656" y="1442.10411"/>
      <point x="287.16406" y="1424.87755"/>
      <point x="314.51563" y="1385.26036" type="curve" smooth="yes"/>
      <point x="825.70313" y="644.80724" type="line"/>
      <point x="1336.92969" y="1389.33067" type="line" smooth="yes"/>
      <point x="1337.22656" y="1389.77599"/>
      <point x="1337.53906" y="1390.22911"/>
      <point x="1337.85156" y="1390.67442" type="curve" smooth="yes"/>
      <point x="1372.59375" y="1440.25255"/>
      <point x="1440.875" y="1452.44786"/>
      <point x="1490.625" y="1417.94005" type="curve" smooth="yes"/>
      <point x="1524.45313" y="1394.4713"/>
      <point x="1541.0625" y="1355.41661"/>
      <point x="1537.45313" y="1317.12755" type="curve"/>
      <point x="1535.35156" y="1254.42442"/>
      <point x="1534.57813" y="566.54161"/>
      <point x="1534.57813" y="111.61192" type="curve" smooth="yes"/>
      <point x="1534.57813" y="51.1588"/>
      <point x="1486.49219" y="0.7838"/>
    </contour>
  </outline>
</glyph>
<glyph name="N" format="2">
  <advance width="1382"/>
  <unicode hex="004E"/>
  <outline>
    <contour>
      <point x="1132.46094" y="-0.01474" type="curve" smooth="yes"/>
      <point x="1098.46875" y="-0.01474"/>
      <point x="1065.58594" y="15.78213"/>
      <point x="1044.41406" y="44.04776" type="curve" smooth="yes"/>
      <point x="351.99219" y="968.42276" type="line" smooth="yes"/>
      <point x="346.22656" y="976.11807"/>
      <point x="333.99219" y="972.03994"/>
      <point x="333.99219" y="962.43057" type="curve" smooth="yes"/>
      <point x="333.99219" y="111.63369" type="line" smooth="yes"/>
      <point x="333.99219" y="51.18057"/>
      <point x="285.89844" y="0.78994"/>
      <point x="225.45312" y="0.00869" type="curve" smooth="yes"/>
      <point x="164.03125" y="-0.78818"/>
      <point x="114" y="48.75869"/>
      <point x="114" y="109.99307" type="curve" smooth="yes"/>
      <point x="114" y="1322.77432" type="line" smooth="yes"/>
      <point x="114" y="1370.13369"/>
      <point x="144.30469" y="1412.17276"/>
      <point x="189.24219" y="1427.13369" type="curve" smooth="yes"/>
      <point x="234.17188" y="1442.09463"/>
      <point x="283.63281" y="1426.62588"/>
      <point x="312.03125" y="1388.71963" type="curve" smooth="yes"/>
      <point x="1004.44531" y="464.34463" type="line" smooth="yes"/>
      <point x="1010.21094" y="456.64932"/>
      <point x="1022.45312" y="460.72744"/>
      <point x="1022.45312" y="470.33682" type="curve" smooth="yes"/>
      <point x="1022.45312" y="1321.13369" type="line" smooth="yes"/>
      <point x="1022.45312" y="1381.58682"/>
      <point x="1070.53906" y="1431.97744"/>
      <point x="1130.98438" y="1432.75869" type="curve" smooth="yes"/>
      <point x="1192.40625" y="1433.55557"/>
      <point x="1242.44531" y="1384.00869"/>
      <point x="1242.44531" y="1322.77432" type="curve" smooth="yes"/>
      <point x="1242.44531" y="111.75869" type="line" smooth="yes"/>
      <point x="1242.44531" y="63.93838"/>
      <point x="1212.44531" y="20.62588"/>
      <point x="1167.04688" y="5.57901" type="curve" smooth="yes"/>
      <point x="1155.67188" y="1.80557"/>
      <point x="1144" y="-0.01474"/>
    </contour>
  </outline>
</glyph>
<glyph name="O" format="2">
  <advance width="1469"/>
  <unicode hex="004F"/>
  <outline>
    <contour>
      <point x="734.97656" y="1246.95312" type="curve" smooth="yes"/>
      <point x="586.75" y="1246.95312"/>
      <point x="473.61719" y="1204.21094"/>
      <point x="398.72656" y="1119.90625" type="curve" smooth="yes"/>
      <point x="320.60156" y="1031.96094"/>
      <point x="280.99219" y="898.42188"/>
      <point x="280.99219" y="722.97656" type="curve" smooth="yes"/>
      <point x="280.99219" y="636.03125"/>
      <point x="291.42969" y="557.77344"/>
      <point x="312.01563" y="490.35156" type="curve" smooth="yes"/>
      <point x="331.44531" y="426.69531"/>
      <point x="360.01563" y="372.64062"/>
      <point x="396.92969" y="329.67188" type="curve" smooth="yes"/>
      <point x="472.55469" y="241.63281"/>
      <point x="586.29688" y="196.99219"/>
      <point x="734.97656" y="196.99219" type="curve" smooth="yes"/>
      <point x="883.65625" y="196.99219"/>
      <point x="997.39844" y="241.63281"/>
      <point x="1073.02344" y="329.67188" type="curve" smooth="yes"/>
      <point x="1109.9375" y="372.64062"/>
      <point x="1138.50781" y="426.69531"/>
      <point x="1157.9375" y="490.35156" type="curve" smooth="yes"/>
      <point x="1178.52344" y="557.77344"/>
      <point x="1188.96094" y="636.03125"/>
      <point x="1188.96094" y="722.97656" type="curve" smooth="yes"/>
      <point x="1188.96094" y="898.42188"/>
      <point x="1149.35156" y="1031.96094"/>
      <point x="1071.22656" y="1119.90625" type="curve" smooth="yes"/>
      <point x="996.33594" y="1204.21094"/>
      <point x="883.20313" y="1246.95312"/>
    </contour>
    <contour>
      <point x="734.97656" y="-23" type="curve" smooth="yes"/>
      <point x="629.10156" y="-23"/>
      <point x="532.53906" y="-5.3125"/>
      <point x="447.98438" y="29.5625" type="curve" smooth="yes"/>
      <point x="362.42188" y="64.85156"/>
      <point x="289.09375" y="117.59375"/>
      <point x="230.05469" y="186.3125" type="curve" smooth="yes"/>
      <point x="173.19531" y="252.50781"/>
      <point x="129.97656" y="333.1875"/>
      <point x="101.60938" y="426.11719" type="curve" smooth="yes"/>
      <point x="74.66406" y="514.36719"/>
      <point x="61" y="614.25"/>
      <point x="61" y="722.97656" type="curve" smooth="yes"/>
      <point x="61" y="953.89844"/>
      <point x="119.29688" y="1136.60156"/>
      <point x="234.25781" y="1266.00781" type="curve" smooth="yes"/>
      <point x="293.57813" y="1332.78125"/>
      <point x="367.16406" y="1383.78125"/>
      <point x="452.96875" y="1417.60156" type="curve" smooth="yes"/>
      <point x="536.05469" y="1450.34375"/>
      <point x="630.9375" y="1466.94531"/>
      <point x="734.97656" y="1466.94531" type="curve" smooth="yes"/>
      <point x="839.01563" y="1466.94531"/>
      <point x="933.89844" y="1450.34375"/>
      <point x="1016.98438" y="1417.60156" type="curve" smooth="yes"/>
      <point x="1102.78906" y="1383.78125"/>
      <point x="1176.375" y="1332.78125"/>
      <point x="1235.69531" y="1266.00781" type="curve" smooth="yes"/>
      <point x="1350.65625" y="1136.60156"/>
      <point x="1408.95313" y="953.89844"/>
      <point x="1408.95313" y="722.97656" type="curve" smooth="yes"/>
      <point x="1408.95313" y="614.25"/>
      <point x="1395.28906" y="514.36719"/>
      <point x="1368.34375" y="426.11719" type="curve" smooth="yes"/>
      <point x="1339.97656" y="333.1875"/>
      <point x="1296.75781" y="252.50781"/>
      <point x="1239.89844" y="186.3125" type="curve" smooth="yes"/>
      <point x="1180.85938" y="117.59375"/>
      <point x="1107.53125" y="64.85156"/>
      <point x="1021.96875" y="29.5625" type="curve" smooth="yes"/>
      <point x="937.41406" y="-5.3125"/>
      <point x="840.85156" y="-23"/>
    </contour>
  </outline>
</glyph>
<glyph name="P" format="2">
  <advance width="1220"/>
  <unicode hex="0050"/>
  <outline>
    <contour>
      <point x="333.99219" y="706.89063" type="line"/>
      <point x="658.64062" y="706.89063" type="line" smooth="yes"/>
      <point x="746.875" y="706.89063"/>
      <point x="822.96875" y="729.10156"/>
      <point x="872.88281" y="769.42969" type="curve" smooth="yes"/>
      <point x="919.84375" y="807.35156"/>
      <point x="943.65625" y="861"/>
      <point x="943.65625" y="928.86719" type="curve" smooth="yes"/>
      <point x="943.65625" y="973.83594"/>
      <point x="936.42969" y="1058.89844"/>
      <point x="888.00781" y="1123.33594" type="curve" smooth="yes"/>
      <point x="841.57031" y="1185.13281"/>
      <point x="766.53906" y="1215.17188"/>
      <point x="658.64062" y="1215.17188" type="curve" smooth="yes"/>
      <point x="333.99219" y="1215.17188" type="line"/>
    </contour>
    <contour>
      <point x="224" y="0" type="curve" smooth="yes"/>
      <point x="163.25" y="0"/>
      <point x="114" y="49.24219"/>
      <point x="114" y="109.99219" type="curve" smooth="yes"/>
      <point x="114" y="1325.17188" type="line" smooth="yes"/>
      <point x="114" y="1385.92188"/>
      <point x="163.25" y="1435.16406"/>
      <point x="224" y="1435.16406" type="curve" smooth="yes"/>
      <point x="658.64062" y="1435.16406" type="line" smooth="yes"/>
      <point x="881.98438" y="1435.16406"/>
      <point x="1002.28906" y="1337.45313"/>
      <point x="1063.88281" y="1255.48438" type="curve" smooth="yes"/>
      <point x="1099.64062" y="1207.90625"/>
      <point x="1126.28125" y="1152.0625"/>
      <point x="1143.08594" y="1089.51563" type="curve" smooth="yes"/>
      <point x="1156.72656" y="1038.71875"/>
      <point x="1163.64844" y="984.67188"/>
      <point x="1163.64844" y="928.86719" type="curve" smooth="yes"/>
      <point x="1163.64844" y="861.21094"/>
      <point x="1150.24219" y="798.1875"/>
      <point x="1123.79688" y="741.55469" type="curve" smooth="yes"/>
      <point x="1097.79688" y="685.88281"/>
      <point x="1059.89062" y="637.67969"/>
      <point x="1011.125" y="598.28906" type="curve" smooth="yes"/>
      <point x="920.91406" y="525.42188"/>
      <point x="799.02344" y="486.89844"/>
      <point x="658.64062" y="486.89844" type="curve" smooth="yes"/>
      <point x="333.99219" y="486.89844" type="line"/>
      <point x="333.99219" y="109.99219" type="line" smooth="yes"/>
      <point x="333.99219" y="49.24219"/>
      <point x="284.75" y="0"/>
    </contour>
  </outline>
</glyph>
<glyph name="Q" format="2">
  <advance width="1469"/>
  <unicode hex="0051"/>
  <outline>
    <contour>
      <point x="734.96875" y="1269.22656" type="curve" smooth="yes"/>
      <point x="586.75" y="1269.22656"/>
      <point x="473.61719" y="1226.47656"/>
      <point x="398.71875" y="1142.17188" type="curve" smooth="yes"/>
      <point x="320.60156" y="1054.23438"/>
      <point x="280.99219" y="920.6875"/>
      <point x="280.99219" y="745.24219" type="curve" smooth="yes"/>
      <point x="280.99219" y="658.30469"/>
      <point x="291.42188" y="580.03906"/>
      <point x="312.00781" y="512.61719" type="curve" smooth="yes"/>
      <point x="331.44531" y="448.96875"/>
      <point x="360.00781" y="394.90625"/>
      <point x="396.92188" y="351.9375" type="curve" smooth="yes"/>
      <point x="472.55469" y="263.89844"/>
      <point x="586.28906" y="219.26562"/>
      <point x="734.96875" y="219.26562" type="curve" smooth="yes"/>
      <point x="769.35938" y="219.26562"/>
      <point x="803.78906" y="225.39844"/>
      <point x="837.3125" y="237.49219" type="curve" smooth="yes"/>
      <point x="860.66406" y="245.92188"/>
      <point x="884.1875" y="252.23438"/>
      <point x="907.65625" y="256.42188" type="curve"/>
      <point x="894.14844" y="277.70312"/>
      <point x="879.97656" y="299.85938"/>
      <point x="865.91406" y="321.73438" type="curve"/>
      <point x="860.97656" y="328.14062"/>
      <point x="856.29688" y="334.77344"/>
      <point x="851.875" y="341.66406" type="curve" smooth="yes"/>
      <point x="753.61719" y="494.60938" type="line" smooth="yes"/>
      <point x="720.90625" y="545.53906"/>
      <point x="735.48438" y="613.32812"/>
      <point x="786.25" y="646.30469" type="curve" smooth="yes"/>
      <point x="837.00781" y="679.28125"/>
      <point x="904.875" y="665.03906"/>
      <point x="938.10156" y="614.45312" type="curve" smooth="yes"/>
      <point x="941.36719" y="609.47656"/>
      <point x="990.80469" y="534.1875"/>
      <point x="1044.28125" y="451.10938" type="curve"/>
      <point x="1061.71875" y="432.46094"/>
      <point x="1083.96094" y="431.98438"/>
      <point x="1093.58594" y="432.82812" type="curve" smooth="yes"/>
      <point x="1104.5" y="433.78125"/>
      <point x="1131.25781" y="439.25781"/>
      <point x="1143.90625" y="469.46094" type="curve" smooth="yes"/>
      <point x="1183.10156" y="563.0625"/>
      <point x="1188.95312" y="682.42188"/>
      <point x="1188.95312" y="745.24219" type="curve" smooth="yes"/>
      <point x="1188.95312" y="920.6875"/>
      <point x="1149.34375" y="1054.23438"/>
      <point x="1071.22656" y="1142.17188" type="curve" smooth="yes"/>
      <point x="996.32812" y="1226.47656"/>
      <point x="883.19531" y="1269.22656"/>
    </contour>
    <contour>
      <point x="1265.77344" y="-224" type="curve" smooth="yes"/>
      <point x="1230.78906" y="-224"/>
      <point x="1196.4375" y="-207.33594"/>
      <point x="1175.13281" y="-176.44531" type="curve" smooth="yes"/>
      <point x="1137.46875" y="-121.83594"/>
      <point x="1099.42969" y="-59.14844"/>
      <point x="1056.57031" y="12.40625" type="curve"/>
      <point x="1031.67969" y="37.92188"/>
      <point x="981.83594" y="55.76562"/>
      <point x="911.98438" y="30.5625" type="curve" smooth="yes"/>
      <point x="854.44531" y="9.79688"/>
      <point x="794.89062" y="-0.72656"/>
      <point x="734.96875" y="-0.72656" type="curve" smooth="yes"/>
      <point x="629.09375" y="-0.72656"/>
      <point x="532.53125" y="16.95312"/>
      <point x="447.97656" y="51.82812" type="curve" smooth="yes"/>
      <point x="362.41406" y="87.11719"/>
      <point x="289.09375" y="139.85938"/>
      <point x="230.05469" y="208.57812" type="curve" smooth="yes"/>
      <point x="173.19531" y="274.77344"/>
      <point x="129.97656" y="355.45312"/>
      <point x="101.60156" y="448.38281" type="curve" smooth="yes"/>
      <point x="74.65625" y="536.64062"/>
      <point x="61" y="636.51562"/>
      <point x="61" y="745.24219" type="curve" smooth="yes"/>
      <point x="61" y="976.16406"/>
      <point x="119.28906" y="1158.86719"/>
      <point x="234.25781" y="1288.28125" type="curve" smooth="yes"/>
      <point x="293.57031" y="1355.04688"/>
      <point x="367.15625" y="1406.05469"/>
      <point x="452.96094" y="1439.86719" type="curve" smooth="yes"/>
      <point x="536.04688" y="1472.61719"/>
      <point x="630.92969" y="1489.21875"/>
      <point x="734.96875" y="1489.21875" type="curve" smooth="yes"/>
      <point x="839.01562" y="1489.21875"/>
      <point x="933.89844" y="1472.61719"/>
      <point x="1016.98438" y="1439.86719" type="curve" smooth="yes"/>
      <point x="1102.78906" y="1406.05469"/>
      <point x="1176.375" y="1355.04688"/>
      <point x="1235.6875" y="1288.28125" type="curve" smooth="yes"/>
      <point x="1350.65625" y="1158.86719"/>
      <point x="1408.94531" y="976.16406"/>
      <point x="1408.94531" y="745.24219" type="curve" smooth="yes"/>
      <point x="1408.94531" y="648.34375"/>
      <point x="1398.17188" y="507.10156"/>
      <point x="1346.82031" y="384.49219" type="curve" smooth="yes"/>
      <point x="1326.20312" y="335.23438"/>
      <point x="1292.57812" y="293.29688"/>
      <point x="1249.60938" y="263.22656" type="curve" smooth="yes"/>
      <point x="1229.10938" y="248.88281"/>
      <point x="1206.74219" y="237.39844"/>
      <point x="1183.1875" y="229.00781" type="curve"/>
      <point x="1199.50781" y="201.98438"/>
      <point x="1214.94531" y="176.17188"/>
      <point x="1229.38281" y="152.03906" type="curve" smooth="yes"/>
      <point x="1231.71875" y="148.13281"/>
      <point x="1234.03906" y="144.25"/>
      <point x="1236.34375" y="140.39844" type="curve"/>
      <point x="1237.75781" y="138.57031"/>
      <point x="1239.14844" y="136.72656"/>
      <point x="1240.52344" y="134.86719" type="curve" smooth="yes"/>
      <point x="1242.28125" y="132.48438"/>
      <point x="1243.9375" y="130.03125"/>
      <point x="1245.5" y="127.51562" type="curve" smooth="yes"/>
      <point x="1359.19531" y="-56.07812" type="line" smooth="yes"/>
      <point x="1390.625" y="-106.82812"/>
      <point x="1375.84375" y="-173.38281"/>
      <point x="1325.88281" y="-206.05469" type="curve" smooth="yes"/>
      <point x="1307.32812" y="-218.1875"/>
      <point x="1286.44531" y="-224"/>
    </contour>
  </outline>
</glyph>
<glyph name="R" format="2">
  <advance width="1249"/>
  <unicode hex="0052"/>
  <outline>
    <contour>
      <point x="1092.125" y="-0.01308" type="curve" smooth="yes"/>
      <point x="1062.79687" y="-0.01308"/>
      <point x="1033.53906" y="11.64317"/>
      <point x="1011.89062" y="34.71349" type="curve" smooth="yes"/>
      <point x="942.45312" y="108.70567"/>
      <point x="608.25781" y="506.58849"/>
      <point x="456.78125" y="687.73692" type="curve" smooth="yes"/>
      <point x="415.75781" y="736.79942"/>
      <point x="422.75" y="809.91661"/>
      <point x="472.32031" y="850.33067" type="curve" smooth="yes"/>
      <point x="517.28125" y="886.98692"/>
      <point x="582.60156" y="884.4088"/>
      <point x="624.36719" y="844.15099" type="curve" smooth="yes"/>
      <point x="659.07031" y="810.70567"/>
      <point x="698.36719" y="775.20567"/>
      <point x="722.48437" y="760.9713" type="curve" smooth="yes"/>
      <point x="795.53906" y="717.83849"/>
      <point x="831.95312" y="740.83067"/>
      <point x="847.5" y="750.65099" type="curve" smooth="yes"/>
      <point x="898.21094" y="782.66661"/>
      <point x="933.63281" y="868.35411"/>
      <point x="933.63281" y="959.01817" type="curve" smooth="yes"/>
      <point x="933.63281" y="981.06505"/>
      <point x="929.38281" y="1057.9713"/>
      <point x="874.76562" y="1122.11192" type="curve" smooth="yes"/>
      <point x="823.54687" y="1182.26817"/>
      <point x="742.47656" y="1212.76817"/>
      <point x="633.8125" y="1212.76817" type="curve" smooth="yes"/>
      <point x="333.99219" y="1212.76817" type="line"/>
      <point x="333.99219" y="111.61974" type="line" smooth="yes"/>
      <point x="333.99219" y="51.16661"/>
      <point x="285.89844" y="0.7838"/>
      <point x="225.45312" y="-0.00526" type="curve" smooth="yes"/>
      <point x="164.03906" y="-0.80214"/>
      <point x="114" y="48.74474"/>
      <point x="114" y="109.97911" type="curve" smooth="yes"/>
      <point x="114" y="1322.76036" type="line" smooth="yes"/>
      <point x="114" y="1383.51036"/>
      <point x="163.24219" y="1432.76036"/>
      <point x="223.99219" y="1432.76036" type="curve" smooth="yes"/>
      <point x="633.8125" y="1432.76036" type="line" smooth="yes"/>
      <point x="853.15625" y="1432.76036"/>
      <point x="977" y="1341.39317"/>
      <point x="1042.26562" y="1264.73692" type="curve" smooth="yes"/>
      <point x="1113.03125" y="1181.62755"/>
      <point x="1153.625" y="1070.19786"/>
      <point x="1153.625" y="959.01817" type="curve" smooth="yes"/>
      <point x="1153.61719" y="884.88536"/>
      <point x="1139.125" y="811.14317"/>
      <point x="1111.70312" y="745.76817" type="curve" smooth="yes"/>
      <point x="1078.67187" y="667.0338"/>
      <point x="1027.92969" y="604.40099"/>
      <point x="964.96094" y="564.64317" type="curve" smooth="yes"/>
      <point x="939.23437" y="548.39317"/>
      <point x="912.42187" y="536.19786"/>
      <point x="884.84375" y="528.05724" type="curve"/>
      <point x="1011.22656" y="373.91661"/>
      <point x="1133.53125" y="226.58067"/>
      <point x="1172.30469" y="185.25255" type="curve" smooth="yes"/>
      <point x="1234" y="120"/>
      <point x="1175.40072" y="-0.01308"/>
    </contour>
  </outline>
</glyph>
<glyph name="S" format="2">
  <advance width="1240"/>
  <unicode hex="0053"/>
  <outline>
    <contour>
      <point x="581.72909" y="-23" type="curve" smooth="yes"/>
      <point x="457.2994" y="-23"/>
      <point x="342.62753" y="11.54688"/>
      <point x="250.11971" y="76.91406" type="curve" smooth="yes"/>
      <point x="166.97128" y="135.65625"/>
      <point x="103.40096" y="218.82031"/>
      <point x="71.11971" y="311.08594" type="curve" smooth="yes"/>
      <point x="51.0494" y="368.42969"/>
      <point x="81.26815" y="431.17188"/>
      <point x="138.6119" y="451.24219" type="curve" smooth="yes"/>
      <point x="195.94003" y="471.30469"/>
      <point x="258.69784" y="441.08594"/>
      <point x="278.76034" y="383.75" type="curve" smooth="yes"/>
      <point x="296.06503" y="334.30469"/>
      <point x="330.97128" y="289.14844"/>
      <point x="377.05721" y="256.58594" type="curve" smooth="yes"/>
      <point x="432.2369" y="217.59375"/>
      <point x="503.01815" y="196.99219"/>
      <point x="581.72909" y="196.99219" type="curve" smooth="yes"/>
      <point x="682.71346" y="196.99219"/>
      <point x="763.87753" y="218.50781"/>
      <point x="816.45565" y="259.21094" type="curve" smooth="yes"/>
      <point x="861.71346" y="294.25781"/>
      <point x="883.72128" y="342.07031"/>
      <point x="883.72128" y="405.39844" type="curve" smooth="yes"/>
      <point x="883.72128" y="515.1875"/>
      <point x="808.5494" y="564.42969"/>
      <point x="562.01815" y="616.08594" type="curve" smooth="yes"/>
      <point x="431.14315" y="643.07031"/>
      <point x="325.21346" y="686.72656"/>
      <point x="247.19784" y="745.84375" type="curve" smooth="yes"/>
      <point x="146.08065" y="822.46094"/>
      <point x="92.63534" y="924.9375"/>
      <point x="92.63534" y="1042.20313" type="curve" smooth="yes"/>
      <point x="92.63534" y="1163.25"/>
      <point x="139.68221" y="1272.25"/>
      <point x="225.09628" y="1349.10938" type="curve" smooth="yes"/>
      <point x="313.41659" y="1428.59375"/>
      <point x="438.51034" y="1470.60156"/>
      <point x="586.85409" y="1470.60156" type="curve" smooth="yes"/>
      <point x="688.64315" y="1470.60156"/>
      <point x="794.69003" y="1435.04688"/>
      <point x="885.47128" y="1370.49219" type="curve" smooth="yes"/>
      <point x="973.40096" y="1307.95313"/>
      <point x="1038.85409" y="1224.85938"/>
      <point x="1069.76815" y="1136.51563" type="curve" smooth="yes"/>
      <point x="1089.83846" y="1079.17188"/>
      <point x="1059.61971" y="1016.42969"/>
      <point x="1002.27596" y="996.35938" type="curve" smooth="yes"/>
      <point x="990.26034" y="992.15625"/>
      <point x="977.99471" y="990.15625"/>
      <point x="965.94784" y="990.15625" type="curve" smooth="yes"/>
      <point x="920.50253" y="990.15625"/>
      <point x="877.9869" y="1018.53125"/>
      <point x="862.12753" y="1063.85156" type="curve" smooth="yes"/>
      <point x="831.21346" y="1152.1875"/>
      <point x="710.56503" y="1250.60938"/>
      <point x="586.85409" y="1250.60938" type="curve" smooth="yes"/>
      <point x="493.72909" y="1250.60938"/>
      <point x="419.52596" y="1228.125"/>
      <point x="372.25253" y="1185.58594" type="curve" smooth="yes"/>
      <point x="322.97128" y="1141.24219"/>
      <point x="312.62753" y="1083.14063"/>
      <point x="312.62753" y="1042.20313" type="curve" smooth="yes"/>
      <point x="312.62753" y="1012.1875"/>
      <point x="319.61971" y="966.98438"/>
      <point x="380.05721" y="921.17969" type="curve" smooth="yes"/>
      <point x="431.03378" y="882.5625"/>
      <point x="509.33065" y="851.5625"/>
      <point x="606.49471" y="831.53125" type="curve" smooth="yes"/>
      <point x="606.6119" y="831.50781"/>
      <point x="606.72128" y="831.48438"/>
      <point x="606.83846" y="831.46094" type="curve" smooth="yes"/>
      <point x="713.77596" y="809.0625"/>
      <point x="825.90878" y="782.57813"/>
      <point x="918.34628" y="727.32813" type="curve" smooth="yes"/>
      <point x="975.05721" y="693.42969"/>
      <point x="1019.47128" y="651.17969"/>
      <point x="1050.3619" y="601.74219" type="curve" smooth="yes"/>
      <point x="1085.76034" y="545.09375"/>
      <point x="1103.71346" y="479.03906"/>
      <point x="1103.71346" y="405.39844" type="curve" smooth="yes"/>
      <point x="1103.71346" y="340.21094"/>
      <point x="1090.58065" y="279.57031"/>
      <point x="1064.69003" y="225.17188" type="curve" smooth="yes"/>
      <point x="1038.68221" y="170.53906"/>
      <point x="1000.47909" y="123.46875"/>
      <point x="951.12753" y="85.26563" type="curve" smooth="yes"/>
      <point x="859.65096" y="14.4375"/>
      <point x="731.91659" y="-23"/>
    </contour>
  </outline>
</glyph>
<glyph name="T" format="2">
  <advance width="1251"/>
  <unicode hex="0054"/>
  <outline>
    <contour>
      <point x="628.9375" y="0" type="curve" smooth="yes"/>
      <point x="568.1875" y="0"/>
      <point x="518.94531" y="49.24219"/>
      <point x="518.94531" y="109.99219" type="curve" smooth="yes"/>
      <point x="518.94531" y="979.10937" type="line" smooth="yes"/>
      <point x="518.94531" y="1062.75781"/>
      <point x="541.42969" y="1142.94531"/>
      <point x="583.53906" y="1212.78125" type="curve"/>
      <point x="164" y="1212.78125" type="line" smooth="yes"/>
      <point x="103.25" y="1212.78125"/>
      <point x="54" y="1262.03125"/>
      <point x="54" y="1322.77344" type="curve" smooth="yes"/>
      <point x="54" y="1383.52344"/>
      <point x="103.25" y="1432.77344"/>
      <point x="164" y="1432.77344" type="curve" smooth="yes"/>
      <point x="1113.67187" y="1432.77344" type="line" smooth="yes"/>
      <point x="1174.42187" y="1432.77344"/>
      <point x="1223.67187" y="1383.52344"/>
      <point x="1223.67187" y="1322.77344" type="curve" smooth="yes"/>
      <point x="1223.67187" y="1262.03125"/>
      <point x="1174.42187" y="1212.78125"/>
      <point x="1113.67187" y="1212.78125" type="curve" smooth="yes"/>
      <point x="972.60937" y="1212.78125" type="line" smooth="yes"/>
      <point x="843.75781" y="1212.78125"/>
      <point x="738.9375" y="1107.96094"/>
      <point x="738.9375" y="979.10937" type="curve" smooth="yes"/>
      <point x="738.9375" y="109.99219" type="line" smooth="yes"/>
      <point x="738.9375" y="49.24219"/>
      <point x="689.6875" y="0"/>
    </contour>
  </outline>
</glyph>
<glyph name="U" format="2">
  <advance width="1351"/>
  <unicode hex="0055"/>
  <outline>
    <contour>
      <point x="694.32812" y="-23" type="curve" smooth="yes"/>
      <point x="601.00781" y="-23"/>
      <point x="516.32031" y="-7.29687"/>
      <point x="442.59375" y="23.65625" type="curve" smooth="yes"/>
      <point x="366.28125" y="55.71094"/>
      <point x="301.29688" y="104.09375"/>
      <point x="249.46875" y="167.46094" type="curve" smooth="yes"/>
      <point x="152.28125" y="286.28125"/>
      <point x="103" y="455.28125"/>
      <point x="103" y="669.76563" type="curve" smooth="yes"/>
      <point x="103" y="1329.32031" type="line" smooth="yes"/>
      <point x="103" y="1390.07031"/>
      <point x="152.25" y="1439.32031"/>
      <point x="213" y="1439.32031" type="curve" smooth="yes"/>
      <point x="273.75" y="1439.32031"/>
      <point x="322.99219" y="1390.07031"/>
      <point x="322.99219" y="1329.32031" type="curve" smooth="yes"/>
      <point x="322.99219" y="669.76563" type="line" smooth="yes"/>
      <point x="322.99219" y="507.375"/>
      <point x="355.54688" y="385.23437"/>
      <point x="419.75781" y="306.74219" type="curve" smooth="yes"/>
      <point x="480.15625" y="232.89063"/>
      <point x="569.97656" y="196.99219"/>
      <point x="694.32812" y="196.99219" type="curve" smooth="yes"/>
      <point x="818.6875" y="196.99219"/>
      <point x="908.5" y="232.89063"/>
      <point x="968.90625" y="306.74219" type="curve" smooth="yes"/>
      <point x="1033.11719" y="385.23437"/>
      <point x="1065.67188" y="507.375"/>
      <point x="1065.67188" y="669.76563" type="curve" smooth="yes"/>
      <point x="1065.67188" y="1329.32031" type="line" smooth="yes"/>
      <point x="1065.67188" y="1390.07031"/>
      <point x="1114.91406" y="1439.32031"/>
      <point x="1175.66406" y="1439.32031" type="curve" smooth="yes"/>
      <point x="1236.41406" y="1439.32031"/>
      <point x="1285.66406" y="1390.07031"/>
      <point x="1285.66406" y="1329.32031" type="curve" smooth="yes"/>
      <point x="1285.66406" y="669.76563" type="line" smooth="yes"/>
      <point x="1285.66406" y="455.28125"/>
      <point x="1236.38281" y="286.28125"/>
      <point x="1139.19531" y="167.46094" type="curve" smooth="yes"/>
      <point x="1087.35938" y="104.09375"/>
      <point x="1022.38281" y="55.71094"/>
      <point x="946.0625" y="23.65625" type="curve" smooth="yes"/>
      <point x="872.34375" y="-7.29687"/>
      <point x="787.64844" y="-23"/>
    </contour>
  </outline>
</glyph>
<glyph name="V" format="2">
  <advance width="1294"/>
  <unicode hex="0056"/>
  <outline>
    <contour>
      <point x="646.25499" y="2" type="curve" smooth="yes"/>
      <point x="589.73936" y="2"/>
      <point x="538.36436" y="20.6875"/>
      <point x="497.68467" y="56.05469" type="curve" smooth="yes"/>
      <point x="464.5753" y="84.83594"/>
      <point x="438.89561" y="124.28906"/>
      <point x="421.34874" y="173.32031" type="curve" smooth="yes"/>
      <point x="27.12217" y="1278.35156" type="line" smooth="yes"/>
      <point x="6.70811" y="1335.57031"/>
      <point x="36.54405" y="1398.5"/>
      <point x="93.7628" y="1418.91406" type="curve" smooth="yes"/>
      <point x="150.98155" y="1439.32813"/>
      <point x="213.90342" y="1409.48438"/>
      <point x="234.31749" y="1352.27344" type="curve" smooth="yes"/>
      <point x="628.52061" y="247.33594" type="line" smooth="yes"/>
      <point x="634.70811" y="230.02344"/>
      <point x="640.29405" y="223.75781"/>
      <point x="641.75499" y="222.32813" type="curve"/>
      <point x="642.4503" y="222.19531"/>
      <point x="643.87999" y="221.99219"/>
      <point x="646.25499" y="221.99219" type="curve" smooth="yes"/>
      <point x="648.67686" y="221.99219"/>
      <point x="650.12217" y="222.19531"/>
      <point x="650.80967" y="222.33594" type="curve"/>
      <point x="652.25499" y="223.74219"/>
      <point x="657.87217" y="230.02344"/>
      <point x="664.0753" y="247.54688" type="curve" smooth="yes"/>
      <point x="1058.23155" y="1361.46875" type="line" smooth="yes"/>
      <point x="1078.49717" y="1418.74219"/>
      <point x="1141.35655" y="1448.74219"/>
      <point x="1198.62217" y="1428.47656" type="curve" smooth="yes"/>
      <point x="1255.89561" y="1408.21094"/>
      <point x="1285.8878" y="1345.35156"/>
      <point x="1265.62217" y="1288.08594" type="curve" smooth="yes"/>
      <point x="871.46592" y="174.16406" type="line" smooth="yes"/>
      <point x="854.03624" y="124.92188"/>
      <point x="828.37217" y="85.27344"/>
      <point x="795.17686" y="56.32031" type="curve" smooth="yes"/>
      <point x="754.42686" y="20.78125"/>
      <point x="702.93467" y="2"/>
    </contour>
  </outline>
</glyph>
<glyph name="W" format="2">
  <advance width="1874"/>
  <unicode hex="0057"/>
  <outline>
    <contour>
      <point x="1316.98257" y="0" type="curve" smooth="yes"/>
      <point x="1261.21694" y="0"/>
      <point x="1210.09194" y="23.94531"/>
      <point x="1173.02163" y="67.42187" type="curve" smooth="yes"/>
      <point x="1148.59194" y="96.08594"/>
      <point x="1130.33413" y="132.38281"/>
      <point x="1117.34976" y="178.16406" type="curve"/>
      <point x="912.38882" y="655.92969" type="line"/>
      <point x="705.55288" y="177.99219" type="line"/>
      <point x="692.56851" y="132.28906"/>
      <point x="674.32632" y="96.04687"/>
      <point x="649.92007" y="67.42187" type="curve" smooth="yes"/>
      <point x="612.85757" y="23.94531"/>
      <point x="561.73257" y="0"/>
      <point x="505.96694" y="0" type="curve" smooth="yes"/>
      <point x="450.34976" y="0"/>
      <point x="399.32632" y="23.84375"/>
      <point x="362.29507" y="67.125" type="curve" smooth="yes"/>
      <point x="336.42788" y="97.36719"/>
      <point x="317.44351" y="136.17187"/>
      <point x="304.25601" y="185.75781" type="curve" smooth="yes"/>
      <point x="304.12319" y="186.23437"/>
      <point x="304.00601" y="186.71094"/>
      <point x="303.88101" y="187.19531" type="curve" smooth="yes"/>
      <point x="26.88882" y="1287.82813" type="line" smooth="yes"/>
      <point x="12.06069" y="1346.74219"/>
      <point x="47.79507" y="1406.51563"/>
      <point x="106.70913" y="1421.34375" type="curve" smooth="yes"/>
      <point x="165.62319" y="1436.17187"/>
      <point x="225.39663" y="1400.42969"/>
      <point x="240.22476" y="1341.51563" type="curve" smooth="yes"/>
      <point x="508.33413" y="276.1875" type="line"/>
      <point x="741.76382" y="815.57031" type="line" smooth="yes"/>
      <point x="785.48257" y="916.5625"/>
      <point x="802.13101" y="955.03125"/>
      <point x="802.11538" y="1047.82031" type="curve" smooth="yes"/>
      <point x="801.48257" y="1145.10937" type="line" smooth="yes"/>
      <point x="801.08413" y="1205.85156"/>
      <point x="850.00601" y="1255.41406"/>
      <point x="910.74819" y="1255.82031" type="curve" smooth="yes"/>
      <point x="910.99819" y="1255.82031"/>
      <point x="911.24819" y="1255.82031"/>
      <point x="911.49038" y="1255.82031" type="curve" smooth="yes"/>
      <point x="971.89663" y="1255.82031"/>
      <point x="1021.06851" y="1207.05469"/>
      <point x="1021.46694" y="1146.55469" type="curve" smooth="yes"/>
      <point x="1022.09976" y="1052.03906" type="line" smooth="yes"/>
      <point x="1022.09976" y="1051.9375"/>
      <point x="1022.09976" y="1051.84375"/>
      <point x="1022.09976" y="1051.75" type="curve" smooth="yes"/>
      <point x="1022.09976" y="1050.70313"/>
      <point x="1022.10757" y="1049.67187"/>
      <point x="1022.10757" y="1048.63281" type="curve" smooth="yes"/>
      <point x="1022.11538" y="1046.96094" type="line" smooth="yes"/>
      <point x="1022.11538" y="1046.86719"/>
      <point x="1022.11538" y="1046.77344"/>
      <point x="1022.11538" y="1046.67969" type="curve" smooth="yes"/>
      <point x="1022.47476" y="957.08594"/>
      <point x="1037.68569" y="921.69531"/>
      <point x="1078.32632" y="827.11719" type="curve" smooth="yes"/>
      <point x="1083.45132" y="815.1875" type="line"/>
      <point x="1314.63882" y="276.28125" type="line"/>
      <point x="1582.72476" y="1341.51563" type="line" smooth="yes"/>
      <point x="1597.55288" y="1400.42969"/>
      <point x="1657.32632" y="1436.16406"/>
      <point x="1716.24038" y="1421.34375" type="curve" smooth="yes"/>
      <point x="1775.14663" y="1406.51563"/>
      <point x="1810.88882" y="1346.74219"/>
      <point x="1796.06069" y="1287.82813" type="curve" smooth="yes"/>
      <point x="1519.06851" y="187.19531" type="line" smooth="yes"/>
      <point x="1518.94351" y="186.71094"/>
      <point x="1518.81851" y="186.23437"/>
      <point x="1518.69351" y="185.75781" type="curve" smooth="yes"/>
      <point x="1505.50601" y="136.17187"/>
      <point x="1486.51382" y="97.36719"/>
      <point x="1460.65444" y="67.125" type="curve" smooth="yes"/>
      <point x="1423.62319" y="23.84375"/>
      <point x="1372.59976" y="0"/>
    </contour>
  </outline>
</glyph>
<glyph name="X" format="2">
  <advance width="1266"/>
  <unicode hex="0058"/>
  <outline>
    <contour>
      <point x="128.47553" y="0" type="curve" smooth="yes"/>
      <point x="106.2646" y="0"/>
      <point x="83.85835" y="6.70312"/>
      <point x="64.43647" y="20.63281" type="curve" smooth="yes"/>
      <point x="15.14741" y="56.00781"/>
      <point x="3.80366" y="124.60156"/>
      <point x="39.0771" y="173.96094" type="curve" smooth="yes"/>
      <point x="314.28022" y="559.0625" type="line" smooth="yes"/>
      <point x="350.15522" y="609.1875"/>
      <point x="369.48335" y="667.72656"/>
      <point x="370.20991" y="728.42187" type="curve" smooth="yes"/>
      <point x="370.94428" y="789.09375"/>
      <point x="353.04585" y="848.03125"/>
      <point x="318.44428" y="898.85937" type="curve" smooth="yes"/>
      <point x="69.81928" y="1264.14062" type="line" smooth="yes"/>
      <point x="35.6396" y="1314.35937"/>
      <point x="48.6396" y="1382.78125"/>
      <point x="98.85835" y="1416.96094" type="curve" smooth="yes"/>
      <point x="149.0771" y="1451.14062"/>
      <point x="217.49897" y="1438.14062"/>
      <point x="251.68647" y="1387.92187" type="curve" smooth="yes"/>
      <point x="500.31147" y="1022.64062" type="line" smooth="yes"/>
      <point x="526.5146" y="984.14844"/>
      <point x="548.98335" y="942.85937"/>
      <point x="553.31928" y="887.70312" type="curve"/>
      <point x="915.45991" y="1390.32812" type="line" smooth="yes"/>
      <point x="950.97553" y="1439.61719"/>
      <point x="1019.71772" y="1450.78906"/>
      <point x="1069.00678" y="1415.27344" type="curve" smooth="yes"/>
      <point x="1118.28803" y="1379.76562"/>
      <point x="1129.45991" y="1311.02344"/>
      <point x="1093.9521" y="1261.73437" type="curve" smooth="yes"/>
      <point x="839.03022" y="907.91406" type="line" smooth="yes"/>
      <point x="783.19428" y="830.42969"/>
      <point x="781.8896" y="729.45312"/>
      <point x="835.70991" y="650.67187" type="curve" smooth="yes"/>
      <point x="1160.42866" y="175.28906" type="line" smooth="yes"/>
      <point x="1194.69428" y="125.125"/>
      <point x="1181.80366" y="56.6875"/>
      <point x="1131.64741" y="22.42187" type="curve" smooth="yes"/>
      <point x="1081.48335" y="-11.84375"/>
      <point x="1013.03803" y="1.04687"/>
      <point x="978.77241" y="51.20312" type="curve" smooth="yes"/>
      <point x="668.41303" y="505.55469" type="line" smooth="yes"/>
      <point x="653.13178" y="527.92187"/>
      <point x="628.78803" y="577.07812"/>
      <point x="628.28803" y="615.42969" type="curve"/>
      <point x="217.81147" y="45.70312" type="line" smooth="yes"/>
      <point x="196.31928" y="15.875"/>
      <point x="162.6396" y="0"/>
    </contour>
  </outline>
</glyph>
<glyph name="Y" format="2">
  <advance width="1283"/>
  <unicode hex="0059"/>
  <outline>
    <contour>
      <point x="545.39304" y="-0.00526" type="curve" smooth="yes"/>
      <point x="484.94772" y="0.77599"/>
      <point x="436.85397" y="51.16661"/>
      <point x="436.85397" y="111.61974" type="curve" smooth="yes"/>
      <point x="436.85397" y="404.20567" type="line" smooth="yes"/>
      <point x="436.85397" y="476.87755"/>
      <point x="436.09616" y="566.26817"/>
      <point x="482.65085" y="644.74474" type="curve"/>
      <point x="428.66647" y="648.58849"/>
      <point x="368.79929" y="671.24474"/>
      <point x="338.6821" y="719.79942" type="curve" smooth="yes"/>
      <point x="337.76804" y="721.27599"/>
      <point x="336.87741" y="722.7838"/>
      <point x="336.03366" y="724.29942" type="curve" smooth="yes"/>
      <point x="32.86179" y="1269.29161" type="line" smooth="yes"/>
      <point x="3.33054" y="1322.37755"/>
      <point x="22.42429" y="1389.35411"/>
      <point x="75.51022" y="1418.88536" type="curve" smooth="yes"/>
      <point x="128.60397" y="1448.41661"/>
      <point x="195.57272" y="1429.32286"/>
      <point x="225.10397" y="1376.23692" type="curve" smooth="yes"/>
      <point x="265.06491" y="1304.41661"/>
      <point x="305.01022" y="1232.5963"/>
      <point x="344.96335" y="1160.77599" type="curve" smooth="yes"/>
      <point x="376.70554" y="1103.7213"/>
      <point x="408.44772" y="1046.6588"/>
      <point x="440.18991" y="989.5963" type="curve" smooth="yes"/>
      <point x="453.69772" y="965.32286"/>
      <point x="467.20554" y="941.04942"/>
      <point x="480.70554" y="916.76817" type="curve" smooth="yes"/>
      <point x="494.44772" y="892.06505"/>
      <point x="504.00241" y="864.31505"/>
      <point x="535.35397" y="858.6588" type="curve" smooth="yes"/>
      <point x="538.01022" y="858.18224"/>
      <point x="540.72116" y="857.87755"/>
      <point x="543.42429" y="857.77599" type="curve" smooth="yes"/>
      <point x="577.82272" y="856.44786"/>
      <point x="589.03366" y="882.01817"/>
      <point x="604.8071" y="906.68224" type="curve" smooth="yes"/>
      <point x="646.18991" y="971.4088" type="line" smooth="yes"/>
      <point x="680.07272" y="1024.4088"/>
      <point x="713.95554" y="1077.4088"/>
      <point x="747.84616" y="1130.4088" type="curve" smooth="yes"/>
      <point x="799.87741" y="1211.79942"/>
      <point x="851.92429" y="1293.19786"/>
      <point x="903.95554" y="1374.58849" type="curve" smooth="yes"/>
      <point x="905.54147" y="1377.06505"/>
      <point x="907.12741" y="1379.54161"/>
      <point x="908.70554" y="1382.01817" type="curve" smooth="yes"/>
      <point x="941.40866" y="1433.1588"/>
      <point x="1009.35397" y="1448.14317"/>
      <point x="1060.53366" y="1415.49474" type="curve" smooth="yes"/>
      <point x="1111.71335" y="1382.8463"/>
      <point x="1126.76804" y="1314.9088"/>
      <point x="1094.17429" y="1263.69786" type="curve" smooth="yes"/>
      <point x="735.07272" y="699.51817" type="line" smooth="yes"/>
      <point x="683.89304" y="609.68224"/>
      <point x="656.84616" y="507.61974"/>
      <point x="656.84616" y="404.20567" type="curve" smooth="yes"/>
      <point x="656.84616" y="109.97911" type="line" smooth="yes"/>
      <point x="656.84616" y="48.74474"/>
      <point x="606.8071" y="-0.80214"/>
    </contour>
  </outline>
</glyph>
<glyph name="Z" format="2">
  <advance width="1217"/>
  <unicode hex="005A"/>
  <outline>
    <contour>
      <point x="1102.07442" y="2" type="curve" smooth="yes"/>
      <point x="193.96505" y="2" type="line" smooth="yes"/>
      <point x="156.16036" y="2"/>
      <point x="120.39473" y="20.79688"/>
      <point x="100.33223" y="52.84375" type="curve" smooth="yes"/>
      <point x="76.02755" y="91.66406"/>
      <point x="78.76192" y="140.94531"/>
      <point x="106.17598" y="176.64844" type="curve" smooth="yes"/>
      <point x="890.81661" y="1198.69531" type="line" smooth="yes"/>
      <point x="895.8713" y="1205.27344"/>
      <point x="891.17598" y="1214.78125"/>
      <point x="882.88692" y="1214.78125" type="curve" smooth="yes"/>
      <point x="247.09786" y="1214.78125" type="line" smooth="yes"/>
      <point x="187.44161" y="1214.78125"/>
      <point x="137.71505" y="1262.24219"/>
      <point x="136.94161" y="1321.89062" type="curve" smooth="yes"/>
      <point x="136.15255" y="1382.5"/>
      <point x="185.05098" y="1431.88281"/>
      <point x="245.48067" y="1431.88281" type="curve" smooth="yes"/>
      <point x="1121.67598" y="1431.88281" type="line" smooth="yes"/>
      <point x="1159.48067" y="1431.88281"/>
      <point x="1195.2463" y="1413.08594"/>
      <point x="1215.30098" y="1381.03906" type="curve" smooth="yes"/>
      <point x="1239.60567" y="1342.21875"/>
      <point x="1236.8713" y="1292.9375"/>
      <point x="1209.45723" y="1257.23438" type="curve" smooth="yes"/>
      <point x="424.81661" y="235.1875" type="line" smooth="yes"/>
      <point x="419.76973" y="228.60938"/>
      <point x="424.45723" y="219.10156"/>
      <point x="432.7463" y="219.10156" type="curve" smooth="yes"/>
      <point x="1100.45723" y="219.10156" type="line" smooth="yes"/>
      <point x="1160.11348" y="219.10156"/>
      <point x="1209.84786" y="171.64062"/>
      <point x="1210.61348" y="111.99219" type="curve" smooth="yes"/>
      <point x="1211.40255" y="51.375"/>
      <point x="1162.50411" y="2"/>
    </contour>
  </outline>
</glyph>
<glyph name="b" format="2">
  <advance width="1148"/>
  <unicode hex="0062"/>
  <outline>
    <contour>
      <point x="305" y="0" type="line"/>
      <point x="99" y="0" type="line"/>
      <point x="99" y="1460" type="line"/>
      <point x="312" y="1460" type="line"/>
      <point x="312" y="864" type="line"/>
      <point x="359" y="941"/>
      <point x="529" y="1037"/>
      <point x="644" y="1037" type="qcurve" smooth="yes"/>
      <point x="781" y="1037"/>
      <point x="983" y="905"/>
      <point x="1093" y="667"/>
      <point x="1093" y="346"/>
      <point x="983" y="108"/>
      <point x="782" y="-23"/>
      <point x="644" y="-23" type="qcurve" smooth="yes"/>
      <point x="529" y="-23"/>
      <point x="349" y="81"/>
      <point x="305" y="161" type="qcurve"/>
    </contour>
    <contour>
      <point x="307" y="345"/>
      <point x="457" y="162"/>
      <point x="725" y="162"/>
      <point x="875" y="345"/>
      <point x="875" y="669"/>
      <point x="725" y="852"/>
      <point x="457" y="852"/>
      <point x="307" y="669"/>
    </contour>
  </outline>
</glyph>
<glyph name="c" format="2">
  <advance width="1054"/>
  <unicode hex="0063"/>
  <outline>
    <contour>
      <point x="55" y="668"/>
      <point x="179" y="906"/>
      <point x="404" y="1037"/>
      <point x="554" y="1037" type="qcurve" smooth="yes"/>
      <point x="743" y="1037"/>
      <point x="974" y="837"/>
      <point x="1002" y="648" type="qcurve"/>
      <point x="785" y="648" type="line"/>
      <point x="769" y="746"/>
      <point x="648" y="852"/>
      <point x="553" y="852" type="qcurve" smooth="yes"/>
      <point x="421" y="852"/>
      <point x="273" y="671"/>
      <point x="273" y="343"/>
      <point x="421" y="162"/>
      <point x="553" y="162" type="qcurve" smooth="yes"/>
      <point x="645" y="162"/>
      <point x="766" y="264"/>
      <point x="782" y="358" type="qcurve"/>
      <point x="999" y="358" type="line"/>
      <point x="938" y="-23"/>
      <point x="554" y="-23" type="qcurve" smooth="yes"/>
      <point x="403" y="-23"/>
      <point x="179" y="108"/>
      <point x="55" y="346"/>
    </contour>
  </outline>
</glyph>
<glyph name="g" format="2">
  <advance width="1148"/>
  <unicode hex="0067"/>
  <outline>
    <contour>
      <point x="837" y="105" type="qcurve" smooth="yes"/>
      <point x="837" y="179" type="line"/>
      <point x="787" y="96"/>
      <point x="611" y="7"/>
      <point x="504" y="7" type="qcurve" smooth="yes"/>
      <point x="366" y="7"/>
      <point x="165" y="136"/>
      <point x="55" y="368"/>
      <point x="55" y="678"/>
      <point x="164" y="909"/>
      <point x="366" y="1037"/>
      <point x="505" y="1037" type="qcurve" smooth="yes"/>
      <point x="613" y="1037"/>
      <point x="796" y="939"/>
      <point x="843" y="853" type="qcurve"/>
      <point x="843" y="1014" type="line"/>
      <point x="1049" y="1014" type="line"/>
      <point x="1049" y="124" type="line" smooth="yes"/>
      <point x="1049" y="-123"/>
      <point x="784" y="-393"/>
      <point x="540" y="-393" type="qcurve" smooth="yes"/>
      <point x="347" y="-393"/>
      <point x="118" y="-231"/>
      <point x="92" y="-77" type="qcurve"/>
      <point x="304" y="-77" type="line"/>
      <point x="346" y="-210"/>
      <point x="540" y="-210" type="qcurve" smooth="yes"/>
      <point x="837" y="-210"/>
    </contour>
    <contour>
      <point x="841" y="677"/>
      <point x="691" y="852"/>
      <point x="424" y="852"/>
      <point x="273" y="677"/>
      <point x="273" y="367"/>
      <point x="424" y="192"/>
      <point x="691" y="192"/>
      <point x="841" y="367"/>
    </contour>
  </outline>
</glyph>
<glyph name="m" format="2">
  <advance width="1664"/>
  <unicode hex="006D"/>
  <outline>
    <contour>
      <point x="99" y="1014" type="line"/>
      <point x="305" y="1014" type="line"/>
      <point x="305" y="876" type="line"/>
      <point x="352" y="951"/>
      <point x="509" y="1037"/>
      <point x="603" y="1037" type="qcurve" smooth="yes"/>
      <point x="716" y="1037"/>
      <point x="867" y="944"/>
      <point x="907" y="843" type="qcurve"/>
      <point x="960" y="932"/>
      <point x="1130" y="1037"/>
      <point x="1232" y="1037" type="qcurve" smooth="yes"/>
      <point x="1570" y="1037"/>
      <point x="1570" y="618" type="qcurve" smooth="yes"/>
      <point x="1570" y="0" type="line"/>
      <point x="1358" y="0" type="line"/>
      <point x="1358" y="589" type="line" smooth="yes"/>
      <point x="1358" y="729"/>
      <point x="1271" y="852"/>
      <point x="1174" y="852" type="qcurve" smooth="yes"/>
      <point x="1071" y="852"/>
      <point x="940" y="704"/>
      <point x="940" y="585" type="qcurve" smooth="yes"/>
      <point x="940" y="0" type="line"/>
      <point x="729" y="0" type="line"/>
      <point x="729" y="589" type="line" smooth="yes"/>
      <point x="729" y="729"/>
      <point x="642" y="852"/>
      <point x="545" y="852" type="qcurve" smooth="yes"/>
      <point x="442" y="852"/>
      <point x="312" y="704"/>
      <point x="312" y="585" type="qcurve" smooth="yes"/>
      <point x="312" y="0" type="line"/>
      <point x="99" y="0" type="line"/>
    </contour>
  </outline>
</glyph>
<glyph name="n" format="2">
  <advance width="1094"/>
  <unicode hex="006E"/>
  <outline>
    <contour>
      <point x="99" y="1014" type="line"/>
      <point x="305" y="1014" type="line"/>
      <point x="305" y="868" type="line"/>
      <point x="352" y="943"/>
      <point x="521" y="1037"/>
      <point x="632" y="1037" type="qcurve" smooth="yes"/>
      <point x="999" y="1037"/>
      <point x="999" y="605" type="qcurve" smooth="yes"/>
      <point x="999" y="0" type="line"/>
      <point x="787" y="0" type="line"/>
      <point x="787" y="581" type="line" smooth="yes"/>
      <point x="787" y="722"/>
      <point x="687" y="852"/>
      <point x="462" y="852"/>
      <point x="312" y="700"/>
      <point x="312" y="577" type="qcurve" smooth="yes"/>
      <point x="312" y="0" type="line"/>
      <point x="99" y="0" type="line"/>
    </contour>
  </outline>
</glyph>
<glyph name="q" format="2">
  <advance width="1148"/>
  <unicode hex="0071"/>
  <outline>
    <contour>
      <point x="837" y="149" type="line"/>
      <point x="790" y="73"/>
      <point x="620" y="-23"/>
      <point x="504" y="-23" type="qcurve" smooth="yes"/>
      <point x="367" y="-23"/>
      <point x="165" y="109"/>
      <point x="55" y="348"/>
      <point x="55" y="668"/>
      <point x="165" y="906"/>
      <point x="367" y="1037"/>
      <point x="505" y="1037" type="qcurve" smooth="yes"/>
      <point x="620" y="1037"/>
      <point x="799" y="933"/>
      <point x="843" y="853" type="qcurve"/>
      <point x="843" y="1014" type="line"/>
      <point x="1049" y="1014" type="line"/>
      <point x="1049" y="-370" type="line"/>
      <point x="837" y="-370" type="line"/>
    </contour>
    <contour>
      <point x="841" y="669"/>
      <point x="691" y="852"/>
      <point x="424" y="852"/>
      <point x="273" y="669"/>
      <point x="273" y="345"/>
      <point x="424" y="162"/>
      <point x="691" y="162"/>
      <point x="841" y="345"/>
    </contour>
  </outline>
</glyph>
<glyph name="t" format="2">
  <advance width="717"/>
  <unicode hex="0074"/>
  <outline>
    <contour>
      <point x="215" y="316" type="qcurve" smooth="yes"/>
      <point x="215" y="843" type="line"/>
      <point x="25" y="843" type="line"/>
      <point x="25" y="1014" type="line"/>
      <point x="215" y="1014" type="line"/>
      <point x="215" y="1310" type="line"/>
      <point x="427" y="1310" type="line"/>
      <point x="427" y="1014" type="line"/>
      <point x="679" y="1014" type="line"/>
      <point x="679" y="843" type="line"/>
      <point x="427" y="843" type="line"/>
      <point x="427" y="345" type="line" smooth="yes"/>
      <point x="427" y="245"/>
      <point x="498" y="168"/>
      <point x="593" y="168" type="qcurve" smooth="yes"/>
      <point x="612" y="168"/>
      <point x="656" y="171"/>
      <point x="679" y="175" type="qcurve"/>
      <point x="679" y="0" type="line"/>
      <point x="643" y="-6"/>
      <point x="580" y="-13"/>
      <point x="549" y="-13" type="qcurve" smooth="yes"/>
      <point x="375" y="-13"/>
      <point x="215" y="144"/>
    </contour>
  </outline>
</glyph>
<glyph name="u" format="2">
  <advance width="1089"/>
  <unicode hex="0075"/>
  <outline>
    <contour>
      <point x="95" y="409" type="qcurve" smooth="yes"/>
      <point x="95" y="1014" type="line"/>
      <point x="307" y="1014" type="line"/>
      <point x="307" y="433" type="line" smooth="yes"/>
      <point x="307" y="292"/>
      <point x="405" y="163"/>
      <point x="515" y="163" type="qcurve" smooth="yes"/>
      <point x="627" y="163"/>
      <point x="777" y="315"/>
      <point x="777" y="437" type="qcurve" smooth="yes"/>
      <point x="777" y="1014" type="line"/>
      <point x="989" y="1014" type="line"/>
      <point x="989" y="0" type="line"/>
      <point x="784" y="0" type="line"/>
      <point x="784" y="146" type="line"/>
      <point x="737" y="71"/>
      <point x="569" y="-23"/>
      <point x="458" y="-23" type="qcurve" smooth="yes"/>
      <point x="95" y="-23"/>
    </contour>
  </outline>
</glyph>
<glyph name="v" format="2">
  <advance width="1022"/>
  <unicode hex="0076"/>
  <outline>
    <contour>
      <point x="519" y="186" type="line"/>
      <point x="783" y="1014" type="line"/>
      <point x="1004" y="1014" type="line"/>
      <point x="645" y="0" type="line"/>
      <point x="377" y="0" type="line"/>
      <point x="18" y="1014" type="line"/>
      <point x="255" y="1014" type="line"/>
    </contour>
  </outline>
</glyph>
<glyph name="w" format="2">
  <advance width="1485"/>
  <unicode hex="0077"/>
  <outline>
    <contour>
      <point x="1046" y="178" type="line"/>
      <point x="1251" y="1014" type="line"/>
      <point x="1463" y="1014" type="line"/>
      <point x="1179" y="0" type="line"/>
      <point x="922" y="0" type="line"/>
      <point x="742" y="729" type="line"/>
      <point x="563" y="0" type="line"/>
      <point x="305" y="0" type="line"/>
      <point x="22" y="1014" type="line"/>
      <point x="242" y="1014" type="line"/>
      <point x="445" y="187" type="line"/>
      <point x="642" y="994" type="line"/>
      <point x="848" y="994" type="line"/>
    </contour>
  </outline>
</glyph>
<glyph name="bar" format="2">
  <advance width="489"/>
  <unicode hex="007C"/>
  <outline>
    <contour>
      <point x="137" y="1460" type="line"/>
      <point x="352" y="1460" type="line"/>
      <point x="352" y="-230" type="line"/>
      <point x="137" y="-230" type="line"/>
    </contour>
  </outline>
</glyph>
<glyph name="currency" format="2">
  <advance width="1170"/>
  <unicode hex="00A4"/>
  <outline>
    <contour>
      <point x="129" y="857"/>
      <point x="207" y="971" type="qcurve"/>
      <point x="46" y="1133" type="line"/>
      <point x="169" y="1247" type="line"/>
      <point x="329" y="1085" type="line"/>
      <point x="438" y="1151"/>
      <point x="732" y="1151"/>
      <point x="841" y="1085" type="qcurve"/>
      <point x="1001" y="1247" type="line"/>
      <point x="1125" y="1133" type="line"/>
      <point x="964" y="970" type="line"/>
      <point x="1041" y="857"/>
      <point x="1041" y="541"/>
      <point x="963" y="428" type="qcurve"/>
      <point x="1125" y="265" type="line"/>
      <point x="1001" y="151" type="line"/>
      <point x="841" y="313" type="line"/>
      <point x="732" y="248"/>
      <point x="438" y="248"/>
      <point x="329" y="313" type="qcurve"/>
      <point x="169" y="151" type="line"/>
      <point x="46" y="265" type="line"/>
      <point x="207" y="427" type="line"/>
      <point x="129" y="540"/>
    </contour>
    <contour>
      <point x="835" y="833"/>
      <point x="706" y="976"/>
      <point x="464" y="976"/>
      <point x="335" y="833"/>
      <point x="335" y="566"/>
      <point x="464" y="422"/>
      <point x="706" y="422"/>
      <point x="835" y="566"/>
    </contour>
  </outline>
</glyph>
<glyph name="logicalnot" format="2">
  <advance width="1170"/>
  <unicode hex="00AC"/>
  <outline>
    <contour>
      <point x="890" y="608" type="line"/>
      <point x="86" y="608" type="line"/>
      <point x="86" y="793" type="line"/>
      <point x="1084" y="793" type="line"/>
      <point x="1084" y="215" type="line"/>
      <point x="890" y="215" type="line"/>
    </contour>
  </outline>
</glyph>
<glyph name="degree" format="2">
  <advance width="624"/>
  <unicode hex="00B0"/>
  <outline>
    <contour>
      <point x="45" y="1345"/>
      <point x="192" y="1483"/>
      <point x="432" y="1483"/>
      <point x="579" y="1345"/>
      <point x="579" y="1120"/>
      <point x="432" y="981"/>
      <point x="192" y="981"/>
      <point x="45" y="1120"/>
    </contour>
    <contour>
      <point x="435" y="1291"/>
      <point x="368" y="1360"/>
      <point x="256" y="1360"/>
      <point x="188" y="1291"/>
      <point x="188" y="1174"/>
      <point x="256" y="1104"/>
      <point x="368" y="1104"/>
      <point x="435" y="1174"/>
    </contour>
  </outline>
</glyph>
<glyph name="paragraph" format="2">
  <advance width="1169"/>
  <unicode hex="00B6"/>
  <outline>
    <contour>
      <point x="548" y="621" type="line"/>
      <point x="525" y="621" type="line" smooth="yes"/>
      <point x="384" y="621"/>
      <point x="175" y="729"/>
      <point x="59" y="924"/>
      <point x="59" y="1182"/>
      <point x="175" y="1375"/>
      <point x="384" y="1483"/>
      <point x="525" y="1483" type="qcurve" smooth="yes"/>
      <point x="722" y="1483" type="line"/>
      <point x="722" y="-148" type="line"/>
      <point x="548" y="-148" type="line"/>
    </contour>
    <contour>
      <point x="881" y="1483" type="line"/>
      <point x="1055" y="1483" type="line"/>
      <point x="1055" y="-148" type="line"/>
      <point x="881" y="-148" type="line"/>
    </contour>
  </outline>
</glyph>
<glyph name="questiondown" format="2">
  <advance width="1024"/>
  <unicode hex="00BF"/>
  <outline>
    <contour>
      <point x="45" y="-98" type="qcurve" smooth="yes"/>
      <point x="45" y="-2"/>
      <point x="131" y="158"/>
      <point x="233" y="238" type="qcurve" smooth="yes"/>
      <point x="304" y="293" type="line" smooth="yes"/>
      <point x="371" y="346"/>
      <point x="421" y="480"/>
      <point x="421" y="595" type="qcurve"/>
      <point x="619" y="595" type="line"/>
      <point x="619" y="489"/>
      <point x="589" y="342"/>
      <point x="513" y="228"/>
      <point x="444" y="173" type="qcurve" smooth="yes"/>
      <point x="383" y="124" type="line" smooth="yes"/>
      <point x="320" y="74"/>
      <point x="269" y="-29"/>
      <point x="269" y="-87" type="qcurve" smooth="yes"/>
      <point x="269" y="-179"/>
      <point x="399" y="-279"/>
      <point x="505" y="-279" type="qcurve" smooth="yes"/>
      <point x="617" y="-279"/>
      <point x="750" y="-164"/>
      <point x="763" y="-55" type="qcurve"/>
      <point x="973" y="-55" type="line"/>
      <point x="966" y="-175"/>
      <point x="843" y="-362"/>
      <point x="636" y="-470"/>
      <point x="500" y="-470" type="qcurve" smooth="yes"/>
      <point x="366" y="-470"/>
      <point x="161" y="-378"/>
      <point x="45" y="-211"/>
    </contour>
    <contour>
      <point x="380" y="958"/>
      <point x="460" y="1037"/>
      <point x="578" y="1037"/>
      <point x="659" y="958"/>
      <point x="659" y="838"/>
      <point x="578" y="758"/>
      <point x="460" y="758"/>
      <point x="380" y="838"/>
    </contour>
  </outline>
</glyph>
<glyph name="germandbls" format="2">
  <advance width="1106"/>
  <unicode hex="00DF"/>
  <outline>
    <contour>
      <point x="442" y="189" type="line"/>
      <point x="484" y="176"/>
      <point x="561" y="162"/>
      <point x="604" y="162" type="qcurve" smooth="yes"/>
      <point x="717" y="162"/>
      <point x="841" y="293"/>
      <point x="841" y="405" type="qcurve" smooth="yes"/>
      <point x="841" y="533"/>
      <point x="714" y="670"/>
      <point x="594" y="670" type="qcurve" smooth="yes"/>
      <point x="462" y="670" type="line"/>
      <point x="462" y="841" type="line"/>
      <point x="518" y="841" type="line" smooth="yes"/>
      <point x="631" y="841"/>
      <point x="761" y="965"/>
      <point x="761" y="1073" type="qcurve" smooth="yes"/>
      <point x="761" y="1179"/>
      <point x="648" y="1298"/>
      <point x="546" y="1298" type="qcurve" smooth="yes"/>
      <point x="311" y="1298"/>
      <point x="311" y="1024" type="qcurve" smooth="yes"/>
      <point x="311" y="0" type="line"/>
      <point x="99" y="0" type="line"/>
      <point x="99" y="1054" type="line" smooth="yes"/>
      <point x="99" y="1255"/>
      <point x="338" y="1483"/>
      <point x="546" y="1483" type="qcurve" smooth="yes"/>
      <point x="676" y="1483"/>
      <point x="870" y="1385"/>
      <point x="977" y="1209"/>
      <point x="977" y="1091" type="qcurve" smooth="yes"/>
      <point x="977" y="880"/>
      <point x="779" y="782" type="qcurve"/>
      <point x="1057" y="723"/>
      <point x="1057" y="386" type="qcurve" smooth="yes"/>
      <point x="1057" y="194"/>
      <point x="830" y="-23"/>
      <point x="627" y="-23" type="qcurve" smooth="yes"/>
      <point x="529" y="-23"/>
      <point x="442" y="4" type="qcurve"/>
    </contour>
  </outline>
</glyph>
<glyph name="Lslash" format="2">
  <advance width="1200"/>
  <unicode hex="0141"/>
  <outline>
    <contour>
      <point x="28" y="514" type="line"/>
      <point x="218" y="653" type="line"/>
      <point x="218" y="1400" type="line"/>
      <point x="441" y="1400" type="line"/>
      <point x="441" y="782" type="line"/>
      <point x="845" y="1076" type="line"/>
      <point x="845" y="851" type="line"/>
      <point x="441" y="557" type="line"/>
      <point x="441" y="199" type="line"/>
      <point x="1147" y="199" type="line"/>
      <point x="1147" y="0" type="line"/>
      <point x="218" y="0" type="line"/>
      <point x="218" y="430" type="line"/>
      <point x="28" y="290" type="line"/>
    </contour>
  </outline>
</glyph>
<glyph name="OE" format="2">
  <advance width="2197"/>
  <unicode hex="0152"/>
  <outline>
    <contour>
      <point x="61" y="911"/>
      <point x="222" y="1237"/>
      <point x="520" y="1423"/>
      <point x="723" y="1423" type="qcurve" smooth="yes"/>
      <point x="1048" y="1423"/>
      <point x="1174" y="1161" type="qcurve"/>
      <point x="1174" y="1400" type="line"/>
      <point x="2098" y="1400" type="line"/>
      <point x="2098" y="1205" type="line"/>
      <point x="1395" y="1205" type="line"/>
      <point x="1395" y="808" type="line"/>
      <point x="1966" y="808" type="line"/>
      <point x="1966" y="616" type="line"/>
      <point x="1395" y="616" type="line"/>
      <point x="1395" y="195" type="line"/>
      <point x="2114" y="195" type="line"/>
      <point x="2114" y="0" type="line"/>
      <point x="1174" y="0" type="line"/>
      <point x="1174" y="239" type="line"/>
      <point x="1048" y="-23"/>
      <point x="723" y="-23" type="qcurve" smooth="yes"/>
      <point x="520" y="-23"/>
      <point x="222" y="163"/>
      <point x="61" y="489"/>
    </contour>
    <contour>
      <point x="291" y="863"/>
      <point x="291" y="538"/>
      <point x="400" y="299"/>
      <point x="599" y="168"/>
      <point x="871" y="168"/>
      <point x="1070" y="299"/>
      <point x="1178" y="538"/>
      <point x="1178" y="863"/>
      <point x="1070" y="1101"/>
      <point x="871" y="1232"/>
      <point x="599" y="1232"/>
      <point x="400" y="1101"/>
    </contour>
  </outline>
</glyph>
<glyph name="Tbar" format="2">
  <advance width="1251"/>
  <unicode hex="0166"/>
  <outline>
    <contour>
      <point x="239" y="768" type="line"/>
      <point x="514" y="768" type="line"/>
      <point x="514" y="1201" type="line"/>
      <point x="54" y="1201" type="line"/>
      <point x="54" y="1400" type="line"/>
      <point x="1197" y="1400" type="line"/>
      <point x="1197" y="1201" type="line"/>
      <point x="737" y="1201" type="line"/>
      <point x="737" y="768" type="line"/>
      <point x="1019" y="768" type="line"/>
      <point x="1019" y="575" type="line"/>
      <point x="737" y="575" type="line"/>
      <point x="737" y="0" type="line"/>
      <point x="514" y="0" type="line"/>
      <point x="514" y="575" type="line"/>
      <point x="239" y="575" type="line"/>
    </contour>
  </outline>
</glyph>
<glyph name="uni0237" format="2">
  <advance width="411"/>
  <unicode hex="0237"/>
  <outline>
    <contour>
      <point x="-100" y="-205" type="line"/>
      <point x="-66" y="-215"/>
      <point x="-20" y="-215" type="qcurve" smooth="yes"/>
      <point x="48" y="-215"/>
      <point x="99" y="-143"/>
      <point x="99" y="-48" type="qcurve" smooth="yes"/>
      <point x="99" y="1014" type="line"/>
      <point x="312" y="1014" type="line"/>
      <point x="312" y="-67" type="line" smooth="yes"/>
      <point x="312" y="-239"/>
      <point x="169" y="-393"/>
      <point x="19" y="-393" type="qcurve" smooth="yes"/>
      <point x="-16" y="-393"/>
      <point x="-74" y="-384"/>
      <point x="-100" y="-378" type="qcurve"/>
    </contour>
  </outline>
</glyph>
<glyph name="gravecomb" format="2">
  <advance width="0"/>
  <unicode hex="0300"/>
  <outline>
    <contour>
      <point x="131" y="1160" type="line"/>
      <point x="-58" y="1160" type="line"/>
      <point x="-272" y="1518" type="line"/>
      <point x="-34" y="1518" type="line"/>
    </contour>
  </outline>
</glyph>
<glyph name="uni0302" format="2">
  <advance width="0"/>
  <unicode hex="0302"/>
  <outline>
    <contour>
      <point x="-98" y="1518" type="line"/>
      <point x="98" y="1518" type="line"/>
      <point x="361" y="1160" type="line"/>
      <point x="164" y="1160" type="line"/>
      <point x="-3" y="1381" type="line"/>
      <point x="-169" y="1160" type="line"/>
      <point x="-361" y="1160" type="line"/>
    </contour>
  </outline>
</glyph>
<glyph name="uni0304" format="2">
  <advance width="0"/>
  <unicode hex="0304"/>
  <outline>
    <contour>
      <point x="-336" y="1356" type="line"/>
      <point x="336" y="1356" type="line"/>
      <point x="336" y="1202" type="line"/>
      <point x="-336" y="1202" type="line"/>
    </contour>
  </outline>
</glyph>
<glyph name="uni030A" format="2">
  <advance width="0"/>
  <unicode hex="030A"/>
  <outline>
    <contour>
      <point x="-256" y="1485"/>
      <point x="-114" y="1621"/>
      <point x="114" y="1621"/>
      <point x="256" y="1485"/>
      <point x="256" y="1276"/>
      <point x="114" y="1140"/>
      <point x="-114" y="1140"/>
      <point x="-256" y="1276"/>
    </contour>
    <contour>
      <point x="112" y="1432"/>
      <point x="50" y="1497"/>
      <point x="-50" y="1497"/>
      <point x="-112" y="1432"/>
      <point x="-112" y="1329"/>
      <point x="-50" y="1264"/>
      <point x="50" y="1264"/>
      <point x="112" y="1329"/>
    </contour>
  </outline>
</glyph>
<glyph name="uni0315" format="2">
  <advance width="0"/>
  <unicode hex="0315"/>
  <outline>
    <contour>
      <point x="138" y="1460" type="line"/>
      <point x="338" y="1460" type="line"/>
      <point x="247" y="1060" type="line"/>
      <point x="77" y="1060" type="line"/>
    </contour>
  </outline>
</glyph>
<glyph name="dotbelowcomb" format="2">
  <advance width="0"/>
  <unicode hex="0323"/>
  <outline>
    <contour>
      <point x="-131" y="-193"/>
      <point x="-55" y="-120"/>
      <point x="56" y="-120"/>
      <point x="131" y="-193"/>
      <point x="131" y="-303"/>
      <point x="56" y="-376"/>
      <point x="-55" y="-376"/>
      <point x="-131" y="-303"/>
    </contour>
  </outline>
</glyph>
<glyph name="uni0326" format="2">
  <advance width="0"/>
  <unicode hex="0326"/>
  <outline>
    <contour>
      <point x="-105" y="-120" type="line"/>
      <point x="116" y="-120" type="line"/>
      <point x="-59" y="-503" type="line"/>
      <point x="-230" y="-503" type="line"/>
    </contour>
  </outline>
</glyph>
<glyph name="uni0328" format="2">
  <advance width="0"/>
  <unicode hex="0328"/>
  <outline>
    <contour>
      <point x="-367" y="-247" type="qcurve" smooth="yes"/>
      <point x="-367" y="-45"/>
      <point x="-40" y="66" type="qcurve"/>
      <point x="0" y="0" type="line"/>
      <point x="-192" y="-106"/>
      <point x="-192" y="-215" type="qcurve" smooth="yes"/>
      <point x="-192" y="-311"/>
      <point x="-78" y="-311" type="qcurve" smooth="yes"/>
      <point x="-36" y="-311"/>
      <point x="0" y="-299" type="qcurve"/>
      <point x="0" y="-429" type="line"/>
      <point x="-25" y="-436"/>
      <point x="-87" y="-445"/>
      <point x="-120" y="-445" type="qcurve" smooth="yes"/>
      <point x="-238" y="-445"/>
      <point x="-367" y="-338"/>
    </contour>
  </outline>
</glyph>
<glyph name="emdash" format="2">
  <advance width="2000"/>
  <unicode hex="2014"/>
  <outline>
    <contour>
      <point x="65" y="635" type="line"/>
      <point x="1935" y="635" type="line"/>
      <point x="1935" y="457" type="line"/>
      <point x="65" y="457" type="line"/>
    </contour>
  </outline>
</glyph>
<glyph name="guilsinglleft" format="2">
  <advance width="594"/>
  <unicode hex="2039"/>
  <outline>
    <contour>
      <point x="62" y="506" type="line"/>
      <point x="321" y="876" type="line"/>
      <point x="541" y="876" type="line"/>
      <point x="274" y="501" type="line"/>
      <point x="541" y="125" type="line"/>
      <point x="321" y="125" type="line"/>
      <point x="62" y="496" type="line"/>
    </contour>
  </outline>
</glyph>
<glyph name="guilsinglright" format="2">
  <advance width="594"/>
  <unicode hex="203A"/>
  <outline>
    <contour>
      <point x="532" y="496" type="line"/>
      <point x="273" y="125" type="line"/>
      <point x="53" y="125" type="line"/>
      <point x="320" y="501" type="line"/>
      <point x="53" y="876" type="line"/>
      <point x="273" y="876" type="line"/>
      <point x="532" y="505" type="line"/>
    </contour>
  </outline>
</glyph>
<glyph name="fraction" format="2">
  <advance width="310"/>
  <unicode hex="2044"/>
  <outline>
    <contour>
      <point x="498" y="1400" type="line"/>
      <point x="705" y="1400" type="line"/>
      <point x="-188" y="0" type="line"/>
      <point x="-395" y="0" type="line"/>
    </contour>
  </outline>
</glyph>
<glyph name="uni20BD" format="2">
  <advance width="1170"/>
  <unicode hex="20BD"/>
  <outline>
    <contour>
      <point x="177" y="223" type="line"/>
      <point x="-11" y="223" type="line"/>
      <point x="-11" y="379" type="line"/>
      <point x="177" y="379" type="line"/>
      <point x="177" y="535" type="line"/>
      <point x="-11" y="535" type="line"/>
      <point x="-11" y="712" type="line"/>
      <point x="177" y="712" type="line"/>
      <point x="177" y="1400" type="line"/>
      <point x="662" y="1400" type="line" smooth="yes"/>
      <point x="913" y="1400"/>
      <point x="1182" y="1176"/>
      <point x="1182" y="759"/>
      <point x="913" y="535"/>
      <point x="662" y="535" type="qcurve" smooth="yes"/>
      <point x="393" y="535" type="line"/>
      <point x="393" y="379" type="line"/>
      <point x="726" y="379" type="line"/>
      <point x="726" y="223" type="line"/>
      <point x="393" y="223" type="line"/>
      <point x="393" y="0" type="line"/>
      <point x="177" y="0" type="line"/>
    </contour>
    <contour>
      <point x="960" y="1223"/>
      <point x="640" y="1223" type="qcurve" smooth="yes"/>
      <point x="393" y="1223" type="line"/>
      <point x="393" y="712" type="line"/>
      <point x="640" y="712" type="line" smooth="yes"/>
      <point x="960" y="712"/>
    </contour>
  </outline>
</glyph>
<glyph name="A.alt" format="2">
  <advance width="1320"/>
  <outline>
    <contour>
      <point x="571.00446" y="604.98467" type="curve"/>
      <point x="570.98884" y="604.98467"/>
      <point x="570.97321" y="604.97685"/>
      <point x="570.95759" y="604.97685" type="curve"/>
      <point x="570.97321" y="604.97685"/>
      <point x="570.98884" y="604.98467"/>
    </contour>
    <contour>
      <point x="109.82477" y="0.00029" type="curve" smooth="yes"/>
      <point x="97.73884" y="0.00029"/>
      <point x="85.44196" y="2.0081"/>
      <point x="73.38727" y="6.24248" type="curve" smooth="yes"/>
      <point x="16.06696" y="26.36748"/>
      <point x="-14.08147" y="89.14873"/>
      <point x="6.04353" y="146.46123" type="curve" smooth="yes"/>
      <point x="395.13727" y="1254.68779" type="line" smooth="yes"/>
      <point x="432.54353" y="1361.22685"/>
      <point x="533.53571" y="1432.80498"/>
      <point x="646.44196" y="1432.80498" type="curve" smooth="yes"/>
      <point x="758.94196" y="1432.80498"/>
      <point x="859.80915" y="1361.57842"/>
      <point x="897.44196" y="1255.56279" type="curve" smooth="yes"/>
      <point x="897.55915" y="1255.24248"/>
      <point x="897.66853" y="1254.92217"/>
      <point x="897.7779" y="1254.60185" type="curve" smooth="yes"/>
      <point x="916.28571" y="1200.89873"/>
      <point x="937.19977" y="1138.25029"/>
      <point x="959.34821" y="1071.92217" type="curve" smooth="yes"/>
      <point x="990.30915" y="979.18779"/>
      <point x="1022.32477" y="883.30498"/>
      <point x="1048.91071" y="808.5706" type="curve" smooth="yes"/>
      <point x="1071.50446" y="745.06279"/>
      <point x="1082.76227" y="689.24248"/>
      <point x="1083.33259" y="637.91435" type="curve" smooth="yes"/>
      <point x="1083.69977" y="605.21123"/>
      <point x="1075.88727" y="560.22685"/>
      <point x="1055.49665" y="538.93779" type="curve"/>
      <point x="1095.4029" y="527.41435"/>
      <point x="1143.73103" y="489.70342"/>
      <point x="1160.37946" y="452.84404" type="curve" smooth="yes"/>
      <point x="1224.04353" y="311.86748"/>
      <point x="1289.23884" y="151.62529"/>
      <point x="1289.73884" y="150.36748" type="curve" smooth="yes"/>
      <point x="1312.01227" y="93.84404"/>
      <point x="1284.26227" y="29.96904"/>
      <point x="1227.74665" y="7.6956" type="curve" smooth="yes"/>
      <point x="1171.31696" y="-14.5544"/>
      <point x="1107.55134" y="13.08623"/>
      <point x="1085.17634" y="69.42998" type="curve" smooth="yes"/>
      <point x="1067.18415" y="114.31279"/>
      <point x="1048.22321" y="158.82842"/>
      <point x="1029.29353" y="203.32842" type="curve" smooth="yes"/>
      <point x="1013.7154" y="239.96904"/>
      <point x="997.94196" y="276.53935"/>
      <point x="981.87946" y="312.96904" type="curve" smooth="yes"/>
      <point x="967.62165" y="345.30498"/>
      <point x="961.19196" y="374.9456"/>
      <point x="919.88727" y="377.50029" type="curve" smooth="yes"/>
      <point x="889.95759" y="379.35185"/>
      <point x="775.54353" y="348.46123"/>
      <point x="731.39509" y="340.31279" type="curve"/>
      <point x="698.22321" y="336.53154"/>
      <point x="665.48884" y="334.4456"/>
      <point x="632.80134" y="337.75029" type="curve" smooth="yes"/>
      <point x="584.33259" y="342.14873"/>
      <point x="534.52009" y="350.40654"/>
      <point x="496.53571" y="382.92998" type="curve" smooth="yes"/>
      <point x="451.19977" y="419.36748"/>
      <point x="438.05134" y="487.4456"/>
      <point x="467.57477" y="537.55498" type="curve" smooth="yes"/>
      <point x="488.27009" y="575.6956"/>
      <point x="530.80915" y="595.35185"/>
      <point x="571.42634" y="605.0706" type="curve" smooth="yes"/>
      <point x="640.28571" y="619.17998"/>
      <point x="689.16071" y="624.10967"/>
      <point x="861.02009" y="611.9456" type="curve"/>
      <point x="866.37165" y="632.42998"/>
      <point x="863.64509" y="673.00029"/>
      <point x="841.64509" y="734.83623" type="curve" smooth="yes"/>
      <point x="814.3404" y="811.59404"/>
      <point x="781.98103" y="908.51592"/>
      <point x="750.68415" y="1002.2581" type="curve" smooth="yes"/>
      <point x="728.79353" y="1067.80498"/>
      <point x="708.11384" y="1129.73467"/>
      <point x="690.00446" y="1182.30498" type="curve" smooth="yes"/>
      <point x="683.36384" y="1200.5706"/>
      <point x="665.9029" y="1212.81279"/>
      <point x="646.44196" y="1212.81279" type="curve" smooth="yes"/>
      <point x="626.79353" y="1212.81279"/>
      <point x="609.2154" y="1200.35185"/>
      <point x="602.70759" y="1181.81279" type="curve" smooth="yes"/>
      <point x="213.61384" y="73.58623" type="line" smooth="yes"/>
      <point x="197.72321" y="28.3206"/>
      <point x="155.22321" y="0.00029"/>
    </contour>
  </outline>
</glyph>
<glyph name="B.alt" format="2">
  <advance width="1257"/>
  <outline>
    <contour>
      <point x="814.10938" y="274.0625" type="curve" smooth="yes"/>
      <point x="792.35156" y="249.39062"/>
      <point x="754.09375" y="219.99219"/>
      <point x="695.39063" y="219.99219" type="curve" smooth="yes"/>
      <point x="229.99219" y="219.99219" type="line" smooth="yes"/>
      <point x="224.46875" y="219.99219"/>
      <point x="219.99219" y="224.46875"/>
      <point x="219.99219" y="229.99219" type="curve" smooth="yes"/>
      <point x="219.99219" y="1202.78125" type="line" smooth="yes"/>
      <point x="219.99219" y="1208.30469"/>
      <point x="224.46875" y="1212.78125"/>
      <point x="229.99219" y="1212.78125" type="curve" smooth="yes"/>
      <point x="555.19531" y="1212.78125" type="line" smooth="yes"/>
      <point x="627.99219" y="1212.78125"/>
      <point x="691.73438" y="1193.10937"/>
      <point x="734.69531" y="1157.39844" type="curve" smooth="yes"/>
      <point x="768.84375" y="1129.00781"/>
      <point x="787.64844" y="1092"/>
      <point x="787.64844" y="1053.20312" type="curve" smooth="yes"/>
      <point x="787.64844" y="1009.64844"/>
      <point x="784.49219" y="946.30469"/>
      <point x="757.15625" y="899.32031" type="curve" smooth="yes"/>
      <point x="748.71875" y="884.8125"/>
      <point x="738.33594" y="873.14844"/>
      <point x="726.67188" y="863.78906" type="curve"/>
      <point x="680.71875" y="877.17187"/>
      <point x="633.33594" y="884.21875"/>
      <point x="586.41406" y="884.21875" type="curve" smooth="yes"/>
      <point x="543.38281" y="884.21875"/>
      <point x="510.6875" y="879.94531"/>
      <point x="483.53906" y="870.78125" type="curve" smooth="yes"/>
      <point x="412.53125" y="846.80469"/>
      <point x="387.23438" y="790.45312"/>
      <point x="387.23438" y="745.71094" type="curve" smooth="yes"/>
      <point x="387.23438" y="703.91406"/>
      <point x="410.14844" y="649.9375"/>
      <point x="474.4375" y="623.79687" type="curve" smooth="yes"/>
      <point x="503.65625" y="611.92187"/>
      <point x="539.23438" y="606.39062"/>
      <point x="586.41406" y="606.39062" type="curve" smooth="yes"/>
      <point x="642.48438" y="606.39062"/>
      <point x="690.85156" y="613.42187"/>
      <point x="732.54688" y="625.29687" type="curve"/>
      <point x="813.8125" y="578.625"/>
      <point x="865.78125" y="497.24219"/>
      <point x="865.78125" y="421.74219" type="curve" smooth="yes"/>
      <point x="865.78125" y="364.28906"/>
      <point x="847.42969" y="311.84375"/>
    </contour>
    <contour>
      <point x="925.85156" y="756.02344" type="curve"/>
      <point x="933.97656" y="767.01562"/>
      <point x="941.09375" y="777.99219"/>
      <point x="947.32031" y="788.70312" type="curve" smooth="yes"/>
      <point x="1001.39063" y="881.65625"/>
      <point x="1007.64063" y="984.17969"/>
      <point x="1007.64063" y="1053.20312" type="curve" smooth="yes"/>
      <point x="1007.64063" y="1105.95312"/>
      <point x="995.76563" y="1156.875"/>
      <point x="972.33594" y="1204.5625" type="curve" smooth="yes"/>
      <point x="949.54688" y="1250.94531"/>
      <point x="916.91406" y="1291.99219"/>
      <point x="875.33594" y="1326.5625" type="curve" smooth="yes"/>
      <point x="791.75781" y="1396.04687"/>
      <point x="681.05469" y="1432.77344"/>
      <point x="555.19531" y="1432.77344" type="curve" smooth="yes"/>
      <point x="111.17969" y="1432.77344" type="line" smooth="yes"/>
      <point x="110.97656" y="1432.77344"/>
      <point x="110.78125" y="1432.75781"/>
      <point x="110.58594" y="1432.75781" type="curve" smooth="yes"/>
      <point x="110.39063" y="1432.75781"/>
      <point x="110.19531" y="1432.77344"/>
      <point x="110" y="1432.77344" type="curve" smooth="yes"/>
      <point x="49.25" y="1432.77344"/>
      <point x="0" y="1383.52344"/>
      <point x="0" y="1322.78125" type="curve" smooth="yes"/>
      <point x="0" y="109.99219" type="line" smooth="yes"/>
      <point x="0" y="49.24219"/>
      <point x="49.25" y="0"/>
      <point x="110" y="0" type="curve" smooth="yes"/>
      <point x="113.16406" y="0"/>
      <point x="116.29688" y="0.16406"/>
      <point x="119.39844" y="0.42969" type="curve"/>
      <point x="122.5" y="0.16406"/>
      <point x="125.63281" y="0"/>
      <point x="128.80469" y="0" type="curve" smooth="yes"/>
      <point x="695.39063" y="0" type="line" smooth="yes"/>
      <point x="805.23438" y="0"/>
      <point x="905.99219" y="45.64844"/>
      <point x="979.10156" y="128.54687" type="curve" smooth="yes"/>
      <point x="1047.89063" y="206.53906"/>
      <point x="1085.77344" y="310.67187"/>
      <point x="1085.77344" y="421.74219" type="curve" smooth="yes"/>
      <point x="1085.77344" y="548.67969"/>
      <point x="1029.00781" y="667.25"/>
    </contour>
  </outline>
</glyph>
<glyph name="E.alt" format="2">
  <advance width="1138"/>
  <outline>
    <contour>
      <point x="831.94531" y="0" type="curve" smooth="yes"/>
      <point x="110" y="0" type="line" smooth="yes"/>
      <point x="49.25" y="0"/>
      <point x="0" y="49.24219"/>
      <point x="0" y="109.99219" type="curve" smooth="yes"/>
      <point x="0" y="555.03906" type="line" smooth="yes"/>
      <point x="0" y="597.38281"/>
      <point x="14.32812" y="660.34375"/>
      <point x="82.26562" y="720.70313" type="curve"/>
      <point x="78.32812" y="724.54687"/>
      <point x="74.53125" y="728.46094"/>
      <point x="70.875" y="732.44531" type="curve" smooth="yes"/>
      <point x="24.50781" y="782.96875"/>
      <point x="0" y="846.13281"/>
      <point x="0" y="915.11719" type="curve" smooth="yes"/>
      <point x="0" y="1322.77344" type="line" smooth="yes"/>
      <point x="0" y="1383.52344"/>
      <point x="49.25" y="1432.77344"/>
      <point x="110" y="1432.77344" type="curve" smooth="yes"/>
      <point x="807.5" y="1432.77344" type="line" smooth="yes"/>
      <point x="867.95312" y="1432.77344"/>
      <point x="918.34375" y="1384.6875"/>
      <point x="919.125" y="1324.23437" type="curve" smooth="yes"/>
      <point x="919.92188" y="1262.82031"/>
      <point x="870.36719" y="1212.78125"/>
      <point x="809.14062" y="1212.78125" type="curve" smooth="yes"/>
      <point x="229.99219" y="1212.78125" type="line" smooth="yes"/>
      <point x="224.46875" y="1212.78125"/>
      <point x="219.99219" y="1208.30469"/>
      <point x="219.99219" y="1202.78125" type="curve" smooth="yes"/>
      <point x="219.99219" y="915.11719" type="line" smooth="yes"/>
      <point x="219.99219" y="901.50781"/>
      <point x="219.99219" y="873.1875"/>
      <point x="296.25" y="842.66406" type="curve" smooth="yes"/>
      <point x="300.61719" y="840.92187"/>
      <point x="305.08594" y="839.23437"/>
      <point x="309.64844" y="837.60156" type="curve"/>
      <point x="385.71094" y="861.91406"/>
      <point x="458.83594" y="876.02344"/>
      <point x="506.66406" y="881.19531" type="curve" smooth="yes"/>
      <point x="569.39844" y="887.99219"/>
      <point x="634.78906" y="890.89844"/>
      <point x="684.27344" y="846.48437" type="curve" smooth="yes"/>
      <point x="730.75781" y="804.75781"/>
      <point x="730.75781" y="749.14063"/>
      <point x="730.75781" y="730.85937" type="curve" smooth="yes"/>
      <point x="730.75781" y="685.60156"/>
      <point x="713.10156" y="645"/>
      <point x="681.03125" y="616.51563" type="curve" smooth="yes"/>
      <point x="626.44531" y="568.03906"/>
      <point x="551.67188" y="570.57813"/>
      <point x="500.17969" y="576.71094" type="curve" smooth="yes"/>
      <point x="442.51562" y="583.57031"/>
      <point x="379.30469" y="591.96094"/>
      <point x="317.5" y="606.55469" type="curve"/>
      <point x="299.03125" y="598.92969"/>
      <point x="283.64062" y="591.54687"/>
      <point x="270.91406" y="584.67187" type="curve" smooth="yes"/>
      <point x="239.57812" y="567.73437"/>
      <point x="219.99219" y="535.0625"/>
      <point x="219.99219" y="499.44531" type="curve" smooth="yes"/>
      <point x="219.99219" y="229.99219" type="line" smooth="yes"/>
      <point x="219.99219" y="224.46094"/>
      <point x="224.46875" y="219.99219"/>
      <point x="229.99219" y="219.99219" type="curve" smooth="yes"/>
      <point x="830.30469" y="219.99219" type="line" smooth="yes"/>
      <point x="890.76562" y="219.99219"/>
      <point x="941.14844" y="171.89844"/>
      <point x="941.9375" y="111.45313" type="curve" smooth="yes"/>
      <point x="942.72656" y="50.03125"/>
      <point x="893.17969" y="0"/>
    </contour>
  </outline>
</glyph>
<glyph name="F.alt" format="2">
  <advance width="1098"/>
  <outline>
    <contour>
      <point x="110.53125" y="-0.00526" type="curve" smooth="yes"/>
      <point x="50.08594" y="0.77599"/>
      <point x="2" y="51.16661"/>
      <point x="2" y="111.61974" type="curve" smooth="yes"/>
      <point x="2" y="555.02599" type="line" smooth="yes"/>
      <point x="2" y="597.36974"/>
      <point x="16.32813" y="660.33067"/>
      <point x="84.26563" y="720.69005" type="curve"/>
      <point x="80.32813" y="724.5338"/>
      <point x="76.52344" y="728.44786"/>
      <point x="72.86719" y="732.43224" type="curve" smooth="yes"/>
      <point x="26.5" y="782.95567"/>
      <point x="2" y="846.11974"/>
      <point x="2" y="915.10411" type="curve" smooth="yes"/>
      <point x="2" y="1322.76036" type="line" smooth="yes"/>
      <point x="2" y="1383.51036"/>
      <point x="51.24219" y="1432.76036"/>
      <point x="111.99219" y="1432.76036" type="curve" smooth="yes"/>
      <point x="809.49219" y="1432.76036" type="line" smooth="yes"/>
      <point x="869.94531" y="1432.76036"/>
      <point x="920.33594" y="1384.67442"/>
      <point x="921.11719" y="1324.2213" type="curve" smooth="yes"/>
      <point x="921.91406" y="1262.80724"/>
      <point x="872.36719" y="1212.76817"/>
      <point x="811.13281" y="1212.76817" type="curve" smooth="yes"/>
      <point x="231.99219" y="1212.76817" type="line" smooth="yes"/>
      <point x="226.46875" y="1212.76817"/>
      <point x="221.99219" y="1208.29161"/>
      <point x="221.99219" y="1202.76817" type="curve" smooth="yes"/>
      <point x="221.99219" y="915.10411" type="line" smooth="yes"/>
      <point x="221.99219" y="901.49474"/>
      <point x="221.99219" y="873.17442"/>
      <point x="298.24219" y="842.65099" type="curve" smooth="yes"/>
      <point x="302.60938" y="840.9088"/>
      <point x="307.08594" y="839.2213"/>
      <point x="311.64063" y="837.58849" type="curve"/>
      <point x="387.70313" y="861.90099"/>
      <point x="460.82813" y="876.01036"/>
      <point x="508.66406" y="881.18224" type="curve" smooth="yes"/>
      <point x="571.39063" y="887.97911"/>
      <point x="636.78125" y="890.88536"/>
      <point x="686.26563" y="846.4713" type="curve" smooth="yes"/>
      <point x="732.75781" y="804.74474"/>
      <point x="732.75781" y="749.12755"/>
      <point x="732.75781" y="730.8463" type="curve" smooth="yes"/>
      <point x="732.75781" y="685.58849"/>
      <point x="715.09375" y="644.98692"/>
      <point x="683.02344" y="616.50255" type="curve" smooth="yes"/>
      <point x="628.4375" y="568.02599"/>
      <point x="553.67188" y="570.56505"/>
      <point x="502.17188" y="576.69786" type="curve" smooth="yes"/>
      <point x="444.51563" y="583.55724"/>
      <point x="381.29688" y="591.94786"/>
      <point x="319.5" y="606.54161" type="curve"/>
      <point x="301.64844" y="599.17442"/>
      <point x="286.67969" y="592.0338"/>
      <point x="274.21094" y="585.35411" type="curve" smooth="yes"/>
      <point x="242.00781" y="568.11974"/>
      <point x="221.98438" y="534.48692"/>
      <point x="221.98438" y="497.95567" type="curve" smooth="yes"/>
      <point x="221.99219" y="109.97911" type="line" smooth="yes"/>
      <point x="221.99219" y="48.74474"/>
      <point x="171.95313" y="-0.80214"/>
    </contour>
  </outline>
</glyph>
<glyph name="K.alt" format="2">
  <advance width="1219"/>
  <outline>
    <contour>
      <point x="965.5625" y="0" type="curve"/>
      <point x="929.48437" y="0"/>
      <point x="894.14844" y="17.72656"/>
      <point x="873.09375" y="50.28125" type="curve" smooth="yes"/>
      <point x="871.75" y="52.35156"/>
      <point x="737.25781" y="260.32031"/>
      <point x="593.59375" y="484.44531" type="curve" smooth="yes"/>
      <point x="575.10937" y="513.28125"/>
      <point x="577.32812" y="543.51562"/>
      <point x="565.78125" y="605.54687" type="curve"/>
      <point x="465.32812" y="457.79687"/>
      <point x="331.09375" y="257.71875"/>
      <point x="203.23437" y="67.84375" type="curve" smooth="yes"/>
      <point x="175.38281" y="26.49219"/>
      <point x="123.05469" y="8.89062"/>
      <point x="75.63281" y="25.46875" type="curve" smooth="yes"/>
      <point x="31.13281" y="41.03125"/>
      <point x="2" y="83.89062"/>
      <point x="2" y="131.03125" type="curve" smooth="yes"/>
      <point x="2" y="1340.42969" type="line" smooth="yes"/>
      <point x="2" y="1400.875"/>
      <point x="50.08594" y="1451.26562"/>
      <point x="110.53125" y="1452.05469" type="curve" smooth="yes"/>
      <point x="171.95312" y="1452.85156"/>
      <point x="221.98437" y="1403.30469"/>
      <point x="221.98437" y="1342.07031" type="curve" smooth="yes"/>
      <point x="221.98437" y="508.39062" type="line" smooth="yes"/>
      <point x="221.98437" y="502.47656"/>
      <point x="229.63281" y="500.11719"/>
      <point x="232.95312" y="505.01562" type="curve" smooth="yes"/>
      <point x="327.08594" y="644.07812"/>
      <point x="433.64062" y="800.95312"/>
      <point x="527.47656" y="937.78906" type="curve"/>
      <point x="529.0625" y="946.125"/>
      <point x="530.77344" y="954.52344"/>
      <point x="532.60156" y="962.94531" type="curve" smooth="yes"/>
      <point x="564.32812" y="1108.94531"/>
      <point x="634.05469" y="1261.17187"/>
      <point x="719.13281" y="1370.14844" type="curve" smooth="yes"/>
      <point x="730.35156" y="1384.52344"/>
      <point x="790.5" y="1456.55469"/>
      <point x="872.69531" y="1462.84375" type="curve" smooth="yes"/>
      <point x="913.25781" y="1465.95312"/>
      <point x="951.60937" y="1452.59375"/>
      <point x="980.67969" y="1425.23437" type="curve" smooth="yes"/>
      <point x="981.41406" y="1424.54687"/>
      <point x="982.14062" y="1423.83594"/>
      <point x="982.85937" y="1423.125" type="curve" smooth="yes"/>
      <point x="1001.92187" y="1404.16406"/>
      <point x="1031.45312" y="1361.96094"/>
      <point x="1015.07031" y="1292.29687" type="curve" smooth="yes"/>
      <point x="1010.48437" y="1272.78125"/>
      <point x="1002.48437" y="1251.55469"/>
      <point x="990.60937" y="1227.39844" type="curve" smooth="yes"/>
      <point x="972.78125" y="1191.10937"/>
      <point x="950.03906" y="1156.23437"/>
      <point x="939.10937" y="1141.64062" type="curve" smooth="yes"/>
      <point x="938.75781" y="1141.17187"/>
      <point x="938.39844" y="1140.69531"/>
      <point x="938.03125" y="1140.23437" type="curve" smooth="yes"/>
      <point x="915.45312" y="1111.09375"/>
      <point x="861.14844" y="1034.21094"/>
      <point x="781.0625" y="918.25781" type="curve" smooth="yes"/>
      <point x="745.58594" y="866.89844"/>
      <point x="728.6875" y="804.74219"/>
      <point x="734.40625" y="742.58594" type="curve" smooth="yes"/>
      <point x="734.44531" y="742.23437"/>
      <point x="734.47656" y="741.88281"/>
      <point x="734.50781" y="741.53125" type="curve" smooth="yes"/>
      <point x="739.60156" y="687.61719"/>
      <point x="754.50781" y="641.0625"/>
      <point x="778.79687" y="603.17187" type="curve" smooth="yes"/>
      <point x="922.21875" y="379.42969"/>
      <point x="1056.47656" y="171.82031"/>
      <point x="1057.82031" y="169.75" type="curve" smooth="yes"/>
      <point x="1090.8125" y="118.74219"/>
      <point x="1076.20312" y="50.64062"/>
      <point x="1025.19531" y="17.64844" type="curve" smooth="yes"/>
      <point x="1006.73437" y="5.71094"/>
      <point x="986.02344" y="0.00781"/>
    </contour>
  </outline>
</glyph>
<glyph name="M.alt" format="2">
  <advance width="1655"/>
  <outline>
    <contour>
      <point x="1285.03906" y="1428.13555" type="curve" smooth="yes"/>
      <point x="1238.48438" y="1442.07305"/>
      <point x="1188.29688" y="1423.80742"/>
      <point x="1161.58594" y="1383.20586" type="curve" smooth="yes"/>
      <point x="1144.9375" y="1357.89336"/>
      <point x="854.5" y="948.34648"/>
      <point x="681.74219" y="709.81523" type="curve"/>
      <point x="508.98438" y="948.34648"/>
      <point x="218.54688" y="1357.89336"/>
      <point x="201.89844" y="1383.20586" type="curve" smooth="yes"/>
      <point x="175.19531" y="1423.80742"/>
      <point x="125.00781" y="1442.07305"/>
      <point x="78.45313" y="1428.13555" type="curve" smooth="yes"/>
      <point x="31.89063" y="1414.19805"/>
      <point x="0" y="1371.36211"/>
      <point x="0" y="1322.76055" type="curve" smooth="yes"/>
      <point x="0" y="111.61992" type="line" smooth="yes"/>
      <point x="0" y="51.16679"/>
      <point x="48.09375" y="0.77617"/>
      <point x="108.53906" y="-0.00508" type="curve" smooth="yes"/>
      <point x="169.95313" y="-0.80977"/>
      <point x="219.99219" y="48.74492"/>
      <point x="219.99219" y="109.97929" type="curve" smooth="yes"/>
      <point x="219.99219" y="957.55742" type="line" smooth="yes"/>
      <point x="219.99219" y="963.40117"/>
      <point x="227.48438" y="965.80742"/>
      <point x="230.875" y="961.04961" type="curve" smooth="yes"/>
      <point x="338.17188" y="810.43242"/>
      <point x="462.42188" y="637.09648"/>
      <point x="544.78906" y="524.23711" type="curve" smooth="yes"/>
      <point x="548.59375" y="519.01836"/>
      <point x="549.53125" y="512.25273"/>
      <point x="547.28125" y="506.19805" type="curve" smooth="yes"/>
      <point x="547.25" y="506.11211" type="line" smooth="yes"/>
      <point x="531.40625" y="463.29179"/>
      <point x="514.21875" y="398.84648"/>
      <point x="533.66406" y="329.66679" type="curve" smooth="yes"/>
      <point x="549.19531" y="274.42461"/>
      <point x="595.08594" y="198.70586"/>
      <point x="681.74219" y="198.70586" type="curve" smooth="yes"/>
      <point x="766.67188" y="198.70586"/>
      <point x="816.54688" y="276.41679"/>
      <point x="829.82031" y="329.66679" type="curve" smooth="yes"/>
      <point x="847.20313" y="399.39336"/>
      <point x="832.08594" y="463.29179"/>
      <point x="816.23438" y="506.11211" type="curve" smooth="yes"/>
      <point x="816.20313" y="506.19805" type="line" smooth="yes"/>
      <point x="813.96094" y="512.25273"/>
      <point x="814.89063" y="519.01836"/>
      <point x="818.69531" y="524.23711" type="curve" smooth="yes"/>
      <point x="901.07031" y="637.09648"/>
      <point x="1025.3125" y="810.43242"/>
      <point x="1132.61719" y="961.04961" type="curve" smooth="yes"/>
      <point x="1136" y="965.80742"/>
      <point x="1143.49219" y="963.40117"/>
      <point x="1143.49219" y="957.55742" type="curve" smooth="yes"/>
      <point x="1143.49219" y="111.61992" type="line" smooth="yes"/>
      <point x="1143.49219" y="51.16679"/>
      <point x="1191.57813" y="0.77617"/>
      <point x="1252.03125" y="-0.00508" type="curve" smooth="yes"/>
      <point x="1313.44531" y="-0.80195"/>
      <point x="1363.48438" y="48.74492"/>
      <point x="1363.48438" y="109.97929" type="curve" smooth="yes"/>
      <point x="1363.48438" y="1322.76055" type="line" smooth="yes"/>
      <point x="1363.48438" y="1371.36211"/>
      <point x="1331.59375" y="1414.19805"/>
    </contour>
  </outline>
</glyph>
<glyph name="M.alt2" format="2">
  <advance width="1655"/>
  <outline>
    <contour>
      <point x="1392.95312" y="596.14844" type="curve" smooth="yes"/>
      <point x="1270.75781" y="798.84375" type="line" smooth="yes"/>
      <point x="1237.6875" y="852.33594"/>
      <point x="1205.91406" y="901.57812"/>
      <point x="1175.41406" y="946.55469" type="curve"/>
      <point x="1285.54688" y="1115.63281"/>
      <point x="1376.39844" y="1199.875"/>
      <point x="1484.44531" y="1199.875" type="curve" smooth="yes"/>
      <point x="1708.89844" y="1199.875"/>
      <point x="1888.46875" y="871.17187"/>
      <point x="1888.46875" y="467.40625" type="curve" smooth="yes"/>
      <point x="1888.46875" y="313.50781"/>
      <point x="1837.78906" y="224.20312"/>
      <point x="1732.78125" y="224.20312" type="curve" smooth="yes"/>
      <point x="1632.13281" y="224.20312"/>
      <point x="1584.05469" y="290.32031"/>
    </contour>
    <contour>
      <point x="726.04688" y="561.46094" type="curve"/>
      <point x="549.34375" y="285.95312"/>
      <point x="488.21875" y="224.20312"/>
      <point x="389.83594" y="224.20312" type="curve" smooth="yes"/>
      <point x="288.59375" y="224.20312"/>
      <point x="228.41406" y="312.61719"/>
      <point x="228.41406" y="470.26562" type="curve" smooth="yes"/>
      <point x="228.41406" y="807.51562"/>
      <point x="397.47656" y="1152.375"/>
      <point x="599.01562" y="1152.375" type="curve" smooth="yes"/>
      <point x="708.15625" y="1152.375"/>
      <point x="799.35156" y="1089.67969"/>
      <point x="939.05469" y="890.76562" type="curve"/>
      <point x="806.40625" y="688.39062"/>
      <point x="726.04688" y="561.46094"/>
    </contour>
    <contour>
      <point x="1498.77344" y="1377.52344" type="curve" smooth="yes"/>
      <point x="1327.875" y="1377.52344"/>
      <point x="1194.28906" y="1249.50781"/>
      <point x="1073.35938" y="1086.875" type="curve"/>
      <point x="907.17969" y="1297.33594"/>
      <point x="768.19531" y="1377.52344"/>
      <point x="601.88281" y="1377.52344" type="curve" smooth="yes"/>
      <point x="262.79688" y="1377.52344"/>
      <point x="3" y="938.61719"/>
      <point x="3" y="474.0625" type="curve" smooth="yes"/>
      <point x="3" y="183.35937"/>
      <point x="144.39844" y="0"/>
      <point x="381.24219" y="0" type="curve" smooth="yes"/>
      <point x="551.70312" y="0"/>
      <point x="674.30469" y="79.9375"/>
      <point x="892.25" y="458.85937" type="curve"/>
      <point x="892.25" y="458.85937"/>
      <point x="983.10156" y="618.4375"/>
      <point x="1045.59375" y="728.35937" type="curve"/>
      <point x="1067.5" y="693.1875"/>
      <point x="1090.57031" y="655.28906"/>
      <point x="1114.79688" y="614.66406" type="curve" smooth="yes"/>
      <point x="1217" y="443.65625" type="line" smooth="yes"/>
      <point x="1416.08594" y="112.30469"/>
      <point x="1527.00781" y="0"/>
      <point x="1728.00781" y="0" type="curve" smooth="yes"/>
      <point x="1958.73438" y="0"/>
      <point x="2087.14062" y="185.85937"/>
      <point x="2087.14062" y="482.61719" type="curve" smooth="yes"/>
      <point x="2087.14062" y="969.02344"/>
      <point x="1821.48438" y="1377.52344"/>
    </contour>
  </outline>
</glyph>
<glyph name="M.opsz48" format="2">
  <advance width="1667"/>
  <outline>
    <contour>
      <point x="114" y="1400" type="line"/>
      <point x="386" y="1400" type="line"/>
      <point x="834" y="234" type="line"/>
      <point x="1281" y="1400" type="line"/>
      <point x="1553" y="1400" type="line"/>
      <point x="1553" y="0" type="line"/>
      <point x="1345" y="0" type="line"/>
      <point x="1345" y="1077" type="line"/>
      <point x="934" y="0" type="line"/>
      <point x="732" y="0" type="line"/>
      <point x="322" y="1063" type="line"/>
      <point x="322" y="0" type="line"/>
      <point x="114" y="0" type="line"/>
    </contour>
  </outline>
</glyph>
<glyph name="O.alt" format="2">
  <advance width="1469"/>
  <outline>
    <contour>
      <point x="786.33594" y="182.53906" type="curve" smooth="yes"/>
      <point x="499.25781" y="182.53906"/>
      <point x="266.53906" y="415.26562"/>
      <point x="266.53906" y="702.34375" type="curve" smooth="yes"/>
      <point x="266.53906" y="989.42187"/>
      <point x="499.25781" y="1222.14062"/>
      <point x="786.33594" y="1222.14062" type="curve" smooth="yes"/>
      <point x="1073.41406" y="1222.14062"/>
      <point x="1306.14063" y="989.42187"/>
      <point x="1306.14063" y="702.34375" type="curve" smooth="yes"/>
      <point x="1306.14063" y="415.26562"/>
      <point x="1073.41406" y="182.53906"/>
    </contour>
    <contour>
      <point x="786.33594" y="1427.6875" type="curve" smooth="yes"/>
      <point x="385.74219" y="1427.6875"/>
      <point x="61" y="1102.9375"/>
      <point x="61" y="702.34375" type="curve" smooth="yes"/>
      <point x="61" y="301.75"/>
      <point x="385.74219" y="-23"/>
      <point x="786.33594" y="-23" type="curve" smooth="yes"/>
      <point x="1186.9375" y="-23"/>
      <point x="1511.67969" y="301.75"/>
      <point x="1511.67969" y="702.34375" type="curve" smooth="yes"/>
      <point x="1511.67969" y="1102.9375"/>
      <point x="1186.9375" y="1427.6875"/>
    </contour>
  </outline>
</glyph>
<glyph name="P.alt" format="2">
  <advance width="1220"/>
  <outline>
    <contour>
      <point x="219.99219" y="1069.85937" type="line" smooth="yes"/>
      <point x="219.99219" y="969.375"/>
      <point x="233.14063" y="884.85156"/>
      <point x="259.08594" y="818.64062" type="curve" smooth="yes"/>
      <point x="279.19531" y="767.29687"/>
      <point x="307.32813" y="726.71094"/>
      <point x="342.69531" y="698.00781" type="curve" smooth="yes"/>
      <point x="367.55469" y="677.82812"/>
      <point x="428.75781" y="639.03125"/>
      <point x="531.20313" y="639.02344" type="curve" smooth="yes"/>
      <point x="560.19531" y="639.02344"/>
      <point x="592.46875" y="642.13281"/>
      <point x="628.17188" y="649.64062" type="curve" smooth="yes"/>
      <point x="684.46875" y="661.47656"/>
      <point x="736.46875" y="693.25781"/>
      <point x="774.58594" y="739.11719" type="curve" smooth="yes"/>
      <point x="817.15625" y="790.33594"/>
      <point x="839.66406" y="855.94531"/>
      <point x="839.66406" y="928.86719" type="curve" smooth="yes"/>
      <point x="839.66406" y="973.57812"/>
      <point x="832.33594" y="1058.25"/>
      <point x="783.28125" y="1122.98437" type="curve" smooth="yes"/>
      <point x="736.26563" y="1185.02344"/>
      <point x="660.82031" y="1215.17969"/>
      <point x="552.64063" y="1215.17969" type="curve" smooth="yes"/>
      <point x="229.99219" y="1215.17969" type="line" smooth="yes"/>
      <point x="224.46875" y="1215.17969"/>
      <point x="219.99219" y="1210.70312"/>
      <point x="219.99219" y="1205.17969" type="curve" smooth="yes"/>
    </contour>
    <contour>
      <point x="110" y="0" type="curve" smooth="yes"/>
      <point x="49.25" y="0"/>
      <point x="0" y="49.25"/>
      <point x="0" y="110" type="curve" smooth="yes"/>
      <point x="0" y="1325.17187" type="line" smooth="yes"/>
      <point x="0" y="1385.92187"/>
      <point x="49.25" y="1435.17187"/>
      <point x="110" y="1435.17187" type="curve" smooth="yes"/>
      <point x="552.64063" y="1435.17187" type="line" smooth="yes"/>
      <point x="775.86719" y="1435.17187"/>
      <point x="896.625" y="1337.65625"/>
      <point x="958.61719" y="1255.85156" type="curve" smooth="yes"/>
      <point x="1023.77344" y="1169.875"/>
      <point x="1059.65625" y="1053.75"/>
      <point x="1059.65625" y="928.86719" type="curve" smooth="yes"/>
      <point x="1059.65625" y="803.94531"/>
      <point x="1019.57813" y="689.70312"/>
      <point x="943.76563" y="598.5" type="curve" smooth="yes"/>
      <point x="874.07813" y="514.65625"/>
      <point x="778.07813" y="456.36719"/>
      <point x="673.44531" y="434.35937" type="curve" smooth="yes"/>
      <point x="622.96875" y="423.74219"/>
      <point x="544.46875" y="413.28125"/>
      <point x="457.16406" y="423.75781" type="curve" smooth="yes"/>
      <point x="366.60938" y="434.625"/>
      <point x="286.9375" y="465.24219"/>
      <point x="219.99219" y="514.83594" type="curve"/>
      <point x="219.99219" y="110" type="line" smooth="yes"/>
      <point x="219.99219" y="49.25"/>
      <point x="170.75" y="0"/>
    </contour>
  </outline>
</glyph>
<glyph name="Q.alt" format="2">
  <advance width="1469"/>
  <outline>
    <contour>
      <point x="673.97656" y="1437.5" type="curve" smooth="yes"/>
      <point x="525.75" y="1437.5"/>
      <point x="412.61719" y="1394.75781"/>
      <point x="337.71875" y="1310.45313" type="curve" smooth="yes"/>
      <point x="259.60156" y="1222.51563"/>
      <point x="219.99219" y="1088.96875"/>
      <point x="219.99219" y="913.52344" type="curve" smooth="yes"/>
      <point x="219.99219" y="826.57813"/>
      <point x="230.42969" y="748.32031"/>
      <point x="251.00781" y="680.89844" type="curve" smooth="yes"/>
      <point x="270.4375" y="617.24219"/>
      <point x="299.00781" y="563.1875"/>
      <point x="335.92187" y="520.21875" type="curve" smooth="yes"/>
      <point x="411.55469" y="432.17969"/>
      <point x="525.28906" y="387.53906"/>
      <point x="673.97656" y="387.53906" type="curve" smooth="yes"/>
      <point x="727.32812" y="387.53906"/>
      <point x="893.60156" y="422.28906"/>
      <point x="969.42187" y="406.32813" type="curve"/>
      <point x="963.83594" y="414.53906"/>
      <point x="929.95312" y="445.78125"/>
      <point x="924.44531" y="453.88281" type="curve" smooth="yes"/>
      <point x="914.26562" y="468.84375"/>
      <point x="898.89062" y="479.36719"/>
      <point x="881.35156" y="483.84375" type="curve" smooth="yes"/>
      <point x="881.26562" y="483.86719"/>
      <point x="881.17187" y="483.89063"/>
      <point x="881.08594" y="483.91406" type="curve" smooth="yes"/>
      <point x="801.22656" y="504.38281"/>
      <point x="725.13281" y="550.02344"/>
      <point x="654.92187" y="619.57813" type="curve" smooth="yes"/>
      <point x="595.75781" y="678.19531"/>
      <point x="563.78125" y="749.6875"/>
      <point x="567.19531" y="815.73438" type="curve" smooth="yes"/>
      <point x="569.75781" y="865.29688"/>
      <point x="591.89062" y="909.25"/>
      <point x="629.50781" y="939.5" type="curve" smooth="yes"/>
      <point x="680.3125" y="980.36719"/>
      <point x="729.88281" y="981.60938"/>
      <point x="762.74219" y="976.72656" type="curve" smooth="yes"/>
      <point x="904.25" y="955.66406"/>
      <point x="970.65625" y="783.27344"/>
      <point x="986.71094" y="689.64844" type="curve"/>
      <point x="987.94531" y="690.11719"/>
      <point x="1025.1875" y="701.875"/>
      <point x="1026.40625" y="702.38281" type="curve" smooth="yes"/>
      <point x="1098.20312" y="732.32031"/>
      <point x="1146.4375" y="821.85156"/>
      <point x="1146.4375" y="925.17188" type="curve" smooth="yes"/>
      <point x="1146.4375" y="1096.60156"/>
      <point x="1104.65625" y="1227.17969"/>
      <point x="1022.24219" y="1313.26563" type="curve" smooth="yes"/>
      <point x="943.32812" y="1395.70313"/>
      <point x="826.14844" y="1437.5"/>
    </contour>
    <contour>
      <point x="1292.92969" y="0" type="curve" smooth="yes"/>
      <point x="1257.90625" y="0"/>
      <point x="1223.48437" y="16.6875"/>
      <point x="1202.15625" y="47.74219" type="curve"/>
      <point x="1202.14062" y="47.75781"/>
      <point x="1202.13281" y="47.77344"/>
      <point x="1202.11719" y="47.79688" type="curve" smooth="yes"/>
      <point x="1202" y="47.96875" type="line" smooth="yes"/>
      <point x="1196.42969" y="56.07813"/>
      <point x="1171.50781" y="89.24219"/>
      <point x="1118.57812" y="166.53906" type="curve"/>
      <point x="1102.97656" y="184.07031"/>
      <point x="1074.92187" y="200.47656"/>
      <point x="1054.55469" y="202.82031" type="curve" smooth="yes"/>
      <point x="1012.13281" y="207.69531"/>
      <point x="950.71094" y="208.625"/>
      <point x="888.25" y="195.86719" type="curve" smooth="yes"/>
      <point x="823.24219" y="182.59375"/>
      <point x="749.55469" y="167.54688"/>
      <point x="673.97656" y="167.54688" type="curve" smooth="yes"/>
      <point x="568.09375" y="167.54688"/>
      <point x="471.53125" y="185.23438"/>
      <point x="386.97656" y="220.10938" type="curve" smooth="yes"/>
      <point x="301.41406" y="255.39844"/>
      <point x="228.09375" y="308.14063"/>
      <point x="169.05469" y="376.85938" type="curve" smooth="yes"/>
      <point x="112.19531" y="443.05469"/>
      <point x="68.97656" y="523.73438"/>
      <point x="40.60156" y="616.66406" type="curve" smooth="yes"/>
      <point x="13.66406" y="704.92188"/>
      <point x="0" y="804.79688"/>
      <point x="0" y="913.52344" type="curve" smooth="yes"/>
      <point x="0" y="1144.44531"/>
      <point x="58.28906" y="1327.14844"/>
      <point x="173.25781" y="1456.55469" type="curve" smooth="yes"/>
      <point x="232.57031" y="1523.32813"/>
      <point x="306.15625" y="1574.32813"/>
      <point x="391.96094" y="1608.14844" type="curve" smooth="yes"/>
      <point x="475.04687" y="1640.89063"/>
      <point x="569.92969" y="1657.49219"/>
      <point x="673.97656" y="1657.49219" type="curve" smooth="yes"/>
      <point x="777.67969" y="1657.49219"/>
      <point x="872.78906" y="1641.78906"/>
      <point x="956.64844" y="1610.8125" type="curve" smooth="yes"/>
      <point x="1044.20312" y="1578.47656"/>
      <point x="1119.73437" y="1529.55469"/>
      <point x="1181.15625" y="1465.39063" type="curve" smooth="yes"/>
      <point x="1242.73437" y="1401.0625"/>
      <point x="1289.72656" y="1321.77344"/>
      <point x="1320.82031" y="1229.72656" type="curve" smooth="yes"/>
      <point x="1351.08594" y="1140.14063"/>
      <point x="1366.42969" y="1037.67188"/>
      <point x="1366.42969" y="925.17188" type="curve" smooth="yes"/>
      <point x="1366.42969" y="746.85938"/>
      <point x="1281.75" y="591.22656"/>
      <point x="1147.60156" y="517" type="curve"/>
      <point x="1191.39062" y="452.77344"/>
      <point x="1237.4375" y="385.40625"/>
      <point x="1280.36719" y="322.71094" type="curve"/>
      <point x="1290.52344" y="309.92188"/>
      <point x="1300.01562" y="296.07031"/>
      <point x="1308.84375" y="281.16406" type="curve"/>
      <point x="1383.34375" y="172.50781" type="line"/>
      <point x="1383.40625" y="172.42969"/>
      <point x="1383.45312" y="172.35156"/>
      <point x="1383.50781" y="172.26563" type="curve"/>
      <point x="1383.54687" y="172.21094" type="line" smooth="yes"/>
      <point x="1417.89844" y="122.11719"/>
      <point x="1405.14844" y="53.67188"/>
      <point x="1355.07031" y="19.30469" type="curve" smooth="yes"/>
      <point x="1336.04687" y="6.25781"/>
      <point x="1314.375" y="0"/>
    </contour>
  </outline>
</glyph>
<glyph name="R.alt" format="2">
  <advance width="1249"/>
  <outline>
    <contour>
      <point x="978.20312" y="-0.01474" type="curve" smooth="yes"/>
      <point x="942.07812" y="-0.01474"/>
      <point x="906.69531" y="17.75869"/>
      <point x="885.66406" y="50.37588" type="curve" smooth="yes"/>
      <point x="883.79687" y="53.27432"/>
      <point x="698.05469" y="341.25088"/>
      <point x="612.58594" y="472.93838" type="curve" smooth="yes"/>
      <point x="612.53906" y="473.00869"/>
      <point x="651.42969" y="413.00869"/>
      <point x="651.38281" y="413.07901" type="curve" smooth="yes"/>
      <point x="642.54687" y="426.69619"/>
      <point x="612.58594" y="472.93838"/>
      <point x="544.04687" y="505.27432" type="curve" smooth="yes"/>
      <point x="488.13281" y="531.64932"/>
      <point x="455.42187" y="534.35244"/>
      <point x="407.85156" y="571.46963" type="curve" smooth="yes"/>
      <point x="349.78125" y="616.78213"/>
      <point x="318.29687" y="693.77432"/>
      <point x="329.50781" y="763.05557" type="curve" smooth="yes"/>
      <point x="338.52344" y="818.75869"/>
      <point x="374.5625" y="862.93057"/>
      <point x="425.90625" y="881.19619" type="curve" smooth="yes"/>
      <point x="470.50781" y="897.05557"/>
      <point x="517.71094" y="894.04776"/>
      <point x="562.44531" y="872.49307" type="curve" smooth="yes"/>
      <point x="591.66406" y="858.41494"/>
      <point x="619.73437" y="836.43838"/>
      <point x="648.24219" y="805.31338" type="curve" smooth="yes"/>
      <point x="668.32031" y="783.40713"/>
      <point x="687.80469" y="757.88369"/>
      <point x="707.24219" y="730.08682" type="curve"/>
      <point x="710.55469" y="732.25869"/>
      <point x="713.54687" y="734.61026"/>
      <point x="716.17969" y="737.13369" type="curve" smooth="yes"/>
      <point x="779.99219" y="798.19619"/>
      <point x="819.63281" y="883.22744"/>
      <point x="819.63281" y="959.03994" type="curve" smooth="yes"/>
      <point x="819.63281" y="981.07901"/>
      <point x="815.38281" y="1057.99307"/>
      <point x="760.76562" y="1122.13369" type="curve" smooth="yes"/>
      <point x="709.54687" y="1182.28213"/>
      <point x="628.47656" y="1212.78213"/>
      <point x="519.8125" y="1212.78213" type="curve" smooth="yes"/>
      <point x="219.99219" y="1212.78213" type="line"/>
      <point x="219.99219" y="111.63369" type="line" smooth="yes"/>
      <point x="219.99219" y="51.18057"/>
      <point x="171.89844" y="0.79776"/>
      <point x="111.45312" y="0.00869" type="curve" smooth="yes"/>
      <point x="50.03906" y="-0.78818"/>
      <point x="0" y="48.75869"/>
      <point x="0" y="110.00088" type="curve" smooth="yes"/>
      <point x="0" y="1322.78213" type="line" smooth="yes"/>
      <point x="0" y="1383.53213"/>
      <point x="49.24219" y="1432.77432"/>
      <point x="109.99219" y="1432.77432" type="curve" smooth="yes"/>
      <point x="519.8125" y="1432.77432" type="line" smooth="yes"/>
      <point x="739.15625" y="1432.77432"/>
      <point x="863" y="1341.39932"/>
      <point x="928.26562" y="1264.75088" type="curve" smooth="yes"/>
      <point x="999.03125" y="1181.64151"/>
      <point x="1039.625" y="1070.21182"/>
      <point x="1039.625" y="959.03994" type="curve" smooth="yes"/>
      <point x="1039.61719" y="889.11026"/>
      <point x="1022.6875" y="816.16494"/>
      <point x="990.65625" y="748.08682" type="curve" smooth="yes"/>
      <point x="961.08594" y="685.25869"/>
      <point x="918.77344" y="626.50869"/>
      <point x="868.28125" y="578.18838" type="curve" smooth="yes"/>
      <point x="855.76562" y="566.21182"/>
      <point x="842.11719" y="555.41494"/>
      <point x="827.5" y="545.84463" type="curve"/>
      <point x="920.21094" y="402.68057"/>
      <point x="1068.86719" y="172.20401"/>
      <point x="1070.53906" y="169.61807" type="curve" smooth="yes"/>
      <point x="1103.46094" y="118.56338"/>
      <point x="1088.76562" y="50.48526"/>
      <point x="1037.71875" y="17.55557" type="curve" smooth="yes"/>
      <point x="1019.28125" y="5.67276"/>
      <point x="998.61719" y="-0.01474"/>
    </contour>
  </outline>
</glyph>
<glyph name="V.alt" format="2">
  <advance width="1294"/>
  <outline>
    <contour>
      <point x="742.23725" y="593.61719" type="curve" smooth="yes"/>
      <point x="344.6435" y="593.61719"/>
      <point x="65.87788" y="962"/>
      <point x="21.07319" y="1343.4375" type="curve" smooth="yes"/>
      <point x="16.59663" y="1381.54687"/>
      <point x="50.956" y="1434.77344"/>
      <point x="108.86225" y="1434.77344" type="curve" smooth="yes"/>
      <point x="141.69819" y="1434.77344"/>
      <point x="187.01069" y="1420.17969"/>
      <point x="198.87007" y="1373.88281" type="curve" smooth="yes"/>
      <point x="294.44038" y="1000.75781"/>
      <point x="496.87788" y="779.88281"/>
      <point x="742.23725" y="779.88281" type="curve" smooth="yes"/>
      <point x="987.59663" y="779.88281"/>
      <point x="1189.50288" y="1000.89844"/>
      <point x="1285.60444" y="1373.88281" type="curve" smooth="yes"/>
      <point x="1297.37788" y="1419.60156"/>
      <point x="1342.7685" y="1434.77344"/>
      <point x="1375.60444" y="1434.77344" type="curve" smooth="yes"/>
      <point x="1433.5185" y="1434.77344"/>
      <point x="1467.87788" y="1381.54687"/>
      <point x="1463.40132" y="1343.4375" type="curve" smooth="yes"/>
      <point x="1418.59663" y="962"/>
      <point x="1139.831" y="593.61719"/>
    </contour>
    <contour>
      <point x="742.23725" y="2" type="curve" smooth="yes"/>
      <point x="308.22163" y="2"/>
      <point x="65.87788" y="962"/>
      <point x="21.07319" y="1343.4375" type="curve" smooth="yes"/>
      <point x="16.59663" y="1381.54687"/>
      <point x="49.16694" y="1434.77344"/>
      <point x="108.86225" y="1434.77344" type="curve" smooth="yes"/>
      <point x="141.69819" y="1434.77344"/>
      <point x="187.01069" y="1420.17969"/>
      <point x="198.87007" y="1373.88281" type="curve" smooth="yes"/>
      <point x="294.44038" y="1000.75781"/>
      <point x="557.7685" y="242"/>
      <point x="742.23725" y="242" type="curve" smooth="yes"/>
      <point x="926.706" y="242"/>
      <point x="1189.50288" y="1000.89062"/>
      <point x="1285.60444" y="1373.88281" type="curve" smooth="yes"/>
      <point x="1297.37788" y="1419.60156"/>
      <point x="1342.7685" y="1434.78125"/>
      <point x="1375.60444" y="1434.78125" type="curve" smooth="yes"/>
      <point x="1435.30757" y="1434.78125"/>
      <point x="1467.87788" y="1381.54687"/>
      <point x="1463.40132" y="1343.4375" type="curve" smooth="yes"/>
      <point x="1418.59663" y="962"/>
      <point x="1176.24507" y="2"/>
    </contour>
  </outline>
</glyph>
<glyph name="W.alt" format="2">
  <advance width="1874"/>
  <outline>
    <contour>
      <point x="461.17433" y="0" type="curve" smooth="yes"/>
      <point x="456.89308" y="0"/>
      <point x="452.58839" y="0.14844"/>
      <point x="448.26808" y="0.44531" type="curve" smooth="yes"/>
      <point x="372.68995" y="5.70312"/>
      <point x="308.08839" y="56.23437"/>
      <point x="283.68214" y="129.1875" type="curve" smooth="yes"/>
      <point x="283.20558" y="130.625"/>
      <point x="282.73683" y="132.04687"/>
      <point x="282.27589" y="133.47656" type="curve" smooth="yes"/>
      <point x="281.42433" y="136.10156"/>
      <point x="280.68214" y="138.75781"/>
      <point x="280.0337" y="141.4375" type="curve" smooth="yes"/>
      <point x="3.0337" y="1286.79687" type="line" smooth="yes"/>
      <point x="-11.24755" y="1345.84375"/>
      <point x="25.04933" y="1405.28906"/>
      <point x="84.08839" y="1419.57031" type="curve" smooth="yes"/>
      <point x="143.14308" y="1433.83594"/>
      <point x="202.58058" y="1397.5625"/>
      <point x="216.86183" y="1338.50781" type="curve" smooth="yes"/>
      <point x="471.76027" y="284.51562" type="line"/>
      <point x="524.12745" y="390.45312"/>
      <point x="596.06495" y="537.3125"/>
      <point x="660.75245" y="673.95312" type="curve" smooth="yes"/>
      <point x="708.31495" y="774.41406"/>
      <point x="779.90089" y="879.61719"/>
      <point x="760.63527" y="994.80469" type="curve" smooth="yes"/>
      <point x="755.47902" y="1025.60937"/>
      <point x="740.66652" y="1053.98437"/>
      <point x="736.95558" y="1085.85937" type="curve" smooth="yes"/>
      <point x="728.0337" y="1162.46094"/>
      <point x="751.81495" y="1256.72656"/>
      <point x="825.04933" y="1294.60937" type="curve" smooth="yes"/>
      <point x="863.1587" y="1314.32031"/>
      <point x="907.36183" y="1314.70312"/>
      <point x="946.30714" y="1295.65625" type="curve" smooth="yes"/>
      <point x="994.65089" y="1272.01562"/>
      <point x="1030.58839" y="1219.82031"/>
      <point x="1042.45558" y="1156" type="curve" smooth="yes"/>
      <point x="1051.54933" y="1107.03906"/>
      <point x="1044.01808" y="1061.95312"/>
      <point x="1038.68214" y="1013.42187" type="curve" smooth="yes"/>
      <point x="1025.08839" y="889.90625"/>
      <point x="1101.93995" y="780.71875"/>
      <point x="1150.85402" y="671.70312" type="curve" smooth="yes"/>
      <point x="1204.86964" y="551.32812"/>
      <point x="1258.39308" y="430.70312"/>
      <point x="1309.95558" y="309.25781" type="curve"/>
      <point x="1558.87745" y="1338.50781" type="line" smooth="yes"/>
      <point x="1573.15089" y="1397.55469"/>
      <point x="1632.5962" y="1433.83594"/>
      <point x="1691.64308" y="1419.57031" type="curve" smooth="yes"/>
      <point x="1750.68995" y="1405.28906"/>
      <point x="1786.97902" y="1345.84375"/>
      <point x="1772.69777" y="1286.79687" type="curve" smooth="yes"/>
      <point x="1495.70558" y="141.4375" type="line" smooth="yes"/>
      <point x="1495.58839" y="140.94531"/>
      <point x="1495.46339" y="140.44531"/>
      <point x="1495.33058" y="139.95312" type="curve" smooth="yes"/>
      <point x="1494.70558" y="137.52344" type="line" smooth="yes"/>
      <point x="1484.45558" y="98.29687"/>
      <point x="1462.76027" y="64.625"/>
      <point x="1431.9712" y="40.09375" type="curve" smooth="yes"/>
      <point x="1403.08058" y="17.07812"/>
      <point x="1368.20558" y="3.67187"/>
      <point x="1331.12745" y="1.32812" type="curve" smooth="yes"/>
      <point x="1294.15089" y="-1.01563"/>
      <point x="1257.99464" y="7.84375"/>
      <point x="1226.55714" y="26.9375" type="curve" smooth="yes"/>
      <point x="1193.00245" y="47.30469"/>
      <point x="1167.30714" y="77.88281"/>
      <point x="1152.24464" y="115.36719" type="curve" smooth="yes"/>
      <point x="1096.47902" y="254.21094"/>
      <point x="991.16652" y="491.60937"/>
      <point x="906.20558" y="679.25781" type="curve"/>
      <point x="892.26808" y="649.1875"/>
      <point x="876.7837" y="616.13281"/>
      <point x="859.58839" y="579.8125" type="curve" smooth="yes"/>
      <point x="774.9087" y="400.96094"/>
      <point x="678.13527" y="205.16406"/>
      <point x="627.98683" y="104.375" type="curve" smooth="yes"/>
      <point x="595.93214" y="39.94531"/>
      <point x="531.41652" y="0"/>
    </contour>
  </outline>
</glyph>
<glyph name=".notdef" format="2">
  <advance width="1133"/>
  <outline>
    <contour>
      <point x="98" y="1460" type="line"/>
      <point x="1035" y="1460" type="line"/>
      <point x="1035" y="-400" type="line"/>
      <point x="98" y="-400" type="line"/>
    </contour>
    <contour>
      <point x="837" y="1279" type="line"/>
      <point x="297" y="1279" type="line"/>
      <point x="297" y="-219" type="line"/>
      <point x="837" y="-219" type="line"/>
    </contour>
  </outline>
</glyph>
<glyph name="a.alt" format="2">
  <advance width="1148"/>
  <outline>
    <contour>
      <point x="55" y="668"/>
      <point x="165" y="906"/>
      <point x="367" y="1037"/>
      <point x="504" y="1037" type="qcurve" smooth="yes"/>
      <point x="620" y="1037"/>
      <point x="794" y="938"/>
      <point x="840" y="860" type="qcurve"/>
      <point x="840" y="1014" type="line"/>
      <point x="1049" y="1014" type="line"/>
      <point x="1049" y="0" type="line"/>
      <point x="840" y="0" type="line"/>
      <point x="840" y="154" type="line"/>
      <point x="794" y="76"/>
      <point x="620" y="-23"/>
      <point x="504" y="-23" type="qcurve" smooth="yes"/>
      <point x="367" y="-23"/>
      <point x="165" y="108"/>
      <point x="55" y="346"/>
    </contour>
    <contour>
      <point x="841" y="670"/>
      <point x="691" y="852"/>
      <point x="423" y="852"/>
      <point x="273" y="670"/>
      <point x="273" y="344"/>
      <point x="423" y="162"/>
      <point x="691" y="162"/>
      <point x="841" y="344"/>
    </contour>
  </outline>
</glyph>
<glyph name="acutecomb.asc" format="2">
  <advance width="0"/>
  <outline>
    <contour>
      <point x="67" y="1874" type="line"/>
      <point x="312" y="1874" type="line"/>
      <point x="100" y="1574" type="line"/>
      <point x="-98" y="1574" type="line"/>
    </contour>
  </outline>
</glyph>
<glyph name="dotbelowcomb.cap" format="2">
  <advance width="0"/>
  <outline>
    <contour>
      <point x="-136" y="-253" type="qcurve" smooth="yes"/>
      <point x="-136" y="-196"/>
      <point x="-58" y="-120"/>
      <point x="58" y="-120"/>
      <point x="136" y="-196"/>
      <point x="136" y="-253" type="qcurve" smooth="yes"/>
      <point x="136" y="-308"/>
      <point x="58" y="-385"/>
      <point x="-58" y="-385"/>
      <point x="-136" y="-308"/>
    </contour>
  </outline>
</glyph>
<glyph name="tildecomb.cap" format="2">
  <advance width="0"/>
  <outline>
    <contour>
      <point x="-222" y="1534" type="qcurve"/>
      <point x="-398" y="1534" type="line"/>
      <point x="-398" y="1674"/>
      <point x="-265" y="1837"/>
      <point x="-150" y="1837" type="qcurve" smooth="yes"/>
      <point x="-84" y="1837"/>
      <point x="4" y="1782"/>
      <point x="44" y="1736" type="qcurve" smooth="yes"/>
      <point x="76" y="1701"/>
      <point x="117" y="1673"/>
      <point x="140" y="1673" type="qcurve" smooth="yes"/>
      <point x="222" y="1673"/>
      <point x="222" y="1816" type="qcurve"/>
      <point x="398" y="1816" type="line"/>
      <point x="398" y="1675"/>
      <point x="265" y="1513"/>
      <point x="150" y="1513" type="qcurve" smooth="yes"/>
      <point x="84" y="1513"/>
      <point x="-3" y="1568"/>
      <point x="-44" y="1613" type="qcurve" smooth="yes"/>
      <point x="-75" y="1648"/>
      <point x="-117" y="1677"/>
      <point x="-140" y="1677" type="qcurve" smooth="yes"/>
      <point x="-222" y="1677"/>
    </contour>
  </outline>
</glyph>
<glyph name="two.dnom" format="2">
  <advance width="739"/>
  <outline>
    <contour>
      <point x="71" y="125" type="line"/>
      <point x="348" y="326" type="line" smooth="yes"/>
      <point x="426" y="383"/>
      <point x="487" y="466"/>
      <point x="487" y="515" type="qcurve" smooth="yes"/>
      <point x="487" y="568"/>
      <point x="422" y="627"/>
      <point x="363" y="627" type="qcurve" smooth="yes"/>
      <point x="245" y="627"/>
      <point x="228" y="500" type="qcurve"/>
      <point x="57" y="500" type="line"/>
      <point x="68" y="624"/>
      <point x="238" y="772"/>
      <point x="370" y="772" type="qcurve" smooth="yes"/>
      <point x="507" y="772"/>
      <point x="665" y="639"/>
      <point x="665" y="526" type="qcurve" smooth="yes"/>
      <point x="665" y="447"/>
      <point x="577" y="316"/>
      <point x="477" y="245" type="qcurve" smooth="yes"/>
      <point x="329" y="140" type="line"/>
      <point x="686" y="140" type="line"/>
      <point x="686" y="0" type="line"/>
      <point x="71" y="0" type="line"/>
    </contour>
  </outline>
</glyph>
<glyph name="uni0306.cap" format="2">
  <advance width="0"/>
  <outline>
    <contour>
      <point x="-359" y="1818" type="qcurve"/>
      <point x="-182" y="1818" type="line"/>
      <point x="-182" y="1748"/>
      <point x="-104" y="1671"/>
      <point x="104" y="1671"/>
      <point x="182" y="1748"/>
      <point x="182" y="1818" type="qcurve"/>
      <point x="359" y="1818" type="line"/>
      <point x="359" y="1674"/>
      <point x="182" y="1513"/>
      <point x="-182" y="1513"/>
      <point x="-359" y="1674"/>
    </contour>
  </outline>
</glyph>
<glyph name="uni0307.cap" format="2">
  <advance width="0"/>
  <outline>
    <contour>
      <point x="-139" y="1708"/>
      <point x="-59" y="1786"/>
      <point x="59" y="1786"/>
      <point x="139" y="1708"/>
      <point x="139" y="1591"/>
      <point x="59" y="1513"/>
      <point x="-59" y="1513"/>
      <point x="-139" y="1591"/>
    </contour>
  </outline>
</glyph>
<glyph name="uni030B.cap" format="2">
  <advance width="0"/>
  <outline>
    <contour>
      <point x="326" y="1838" type="line"/>
      <point x="575" y="1838" type="line"/>
      <point x="324" y="1520" type="line"/>
      <point x="122" y="1520" type="line"/>
    </contour>
    <contour>
      <point x="-121" y="1838" type="line"/>
      <point x="128" y="1838" type="line"/>
      <point x="-124" y="1520" type="line"/>
      <point x="-325" y="1520" type="line"/>
    </contour>
  </outline>
</glyph>
<glyph name="uni0315.short" format="2">
  <advance width="0"/>
  <outline>
    <contour>
      <point x="85" y="1460" type="line"/>
      <point x="285" y="1460" type="line"/>
      <point x="195" y="1124" type="line"/>
      <point x="25" y="1124" type="line"/>
    </contour>
  </outline>
</glyph>
<glyph name="uni0328.cap" format="2">
  <advance width="0"/>
  <outline>
    <contour>
      <point x="-393" y="-240" type="qcurve" smooth="yes"/>
      <point x="-393" y="-144"/>
      <point x="-222" y="10"/>
      <point x="-39" y="70" type="qcurve"/>
      <point x="0" y="0" type="line"/>
      <point x="-112" y="-56"/>
      <point x="-214" y="-158"/>
      <point x="-214" y="-214" type="qcurve" smooth="yes"/>
      <point x="-214" y="-308"/>
      <point x="-91" y="-308" type="qcurve" smooth="yes"/>
      <point x="-45" y="-308"/>
      <point x="1" y="-297" type="qcurve"/>
      <point x="1" y="-429" type="line"/>
      <point x="-58" y="-445"/>
      <point x="-129" y="-445" type="qcurve" smooth="yes"/>
      <point x="-254" y="-445"/>
      <point x="-393" y="-334"/>
    </contour>
  </outline>
</glyph>
<glyph name="uni0328.round.cap" format="2">
  <advance width="0"/>
  <outline>
    <contour>
      <point x="-270" y="-240" type="qcurve" smooth="yes"/>
      <point x="-270" y="-133"/>
      <point x="-94" y="29"/>
      <point x="96" y="85" type="qcurve"/>
      <point x="123" y="35" type="line"/>
      <point x="9" y="-23"/>
      <point x="-91" y="-139"/>
      <point x="-91" y="-205" type="qcurve" smooth="yes"/>
      <point x="-91" y="-308"/>
      <point x="31" y="-308" type="qcurve" smooth="yes"/>
      <point x="57" y="-308"/>
      <point x="100" y="-302"/>
      <point x="122" y="-297" type="qcurve"/>
      <point x="122" y="-429" type="line"/>
      <point x="94" y="-436"/>
      <point x="29" y="-445"/>
      <point x="-6" y="-445" type="qcurve" smooth="yes"/>
      <point x="-132" y="-445"/>
      <point x="-270" y="-334"/>
    </contour>
  </outline>
</glyph>
<glyph name="zero.dnom" format="2">
  <advance width="791"/>
  <outline>
    <contour>
      <point x="54" y="560"/>
      <point x="236" y="772"/>
      <point x="555" y="772"/>
      <point x="737" y="560"/>
      <point x="737" y="189"/>
      <point x="555" y="-23"/>
      <point x="236" y="-23"/>
      <point x="54" y="189"/>
    </contour>
    <contour>
      <point x="235" y="374" type="qcurve" smooth="yes"/>
      <point x="235" y="252"/>
      <point x="317" y="123"/>
      <point x="474" y="123"/>
      <point x="557" y="252"/>
      <point x="557" y="374" type="qcurve" smooth="yes"/>
      <point x="557" y="626"/>
      <point x="235" y="626"/>
    </contour>
  </outline>
</glyph>
